<svg width="22" height="19" viewBox="0 0 22 19" fill="none" xmlns="http://www.w3.org/2000/svg">
<path d="M21.248 0H0.751953C0.337348 0 0 0.337348 0 0.751953V3.39861C0 3.81528 0.644531 3.81528 0.644531 3.39861V0.751953C0.644531 0.692742 0.692699 0.644531 0.751953 0.644531H21.248C21.3073 0.644531 21.3555 0.692742 21.3555 0.751953V16.4673C21.3555 16.5265 21.3073 16.5747 21.248 16.5747H17.1182V15.9042H20.3595C20.5376 15.9042 20.6818 15.7599 20.6818 15.5819V12.2072C20.6818 11.7905 20.0373 11.7905 20.0373 12.2072V15.2596H17.1182V13.8298C17.1287 13.8307 17.1393 13.8316 17.1492 13.8325C17.4167 13.856 17.7495 13.8852 17.98 13.6543C18.2103 13.4236 18.1812 13.0905 18.1577 12.8228C18.1325 12.5356 18.1597 12.4569 18.3804 12.2734C18.9489 11.8008 18.9594 11.2947 18.3804 10.8133C18.1597 10.6297 18.1326 10.5511 18.1577 10.2639C18.2208 9.54297 17.8841 9.18968 17.1492 9.25427C16.8624 9.27945 16.7846 9.2522 16.6017 9.03139C16.1298 8.46162 15.6234 8.45109 15.1427 9.03139C14.9598 9.25216 14.882 9.27953 14.5952 9.25427C13.8738 9.19089 13.5223 9.52948 13.5866 10.2639C13.6117 10.5512 13.5847 10.6297 13.3639 10.8133C12.7955 11.286 12.785 11.7921 13.3639 12.2734C13.5847 12.4571 13.6117 12.5356 13.5866 12.8229C13.519 13.595 13.8877 13.8936 14.626 13.8298V15.2597H1.96277V1.95959H20.0373V10.4884C20.0373 10.9051 20.6818 10.9051 20.6818 10.4884V1.63732C20.6818 1.45935 20.5376 1.31506 20.3595 1.31506H1.6405C1.46248 1.31506 1.31824 1.45935 1.31824 1.63732V15.5819C1.31824 15.7599 1.46248 15.9042 1.6405 15.9042H14.626V16.5747H0.751953C0.692699 16.5747 0.644531 16.5265 0.644531 16.4673V5.03138C0.644531 4.61472 0 4.61472 0 5.03138V16.4673C0 16.8819 0.337348 17.2193 0.751953 17.2193H14.626V18.678C14.6719 18.9429 14.8247 19.0403 15.0842 18.9702L15.8721 18.6038L16.6601 18.9702C16.855 19.0609 17.1182 18.9176 17.1182 18.678V17.2193H21.248C21.6627 17.2193 22 16.8819 22 16.4673V0.751953C22 0.337305 21.6627 0 21.248 0ZM14.5387 13.1903C14.2161 13.2187 14.2004 13.2015 14.2286 12.879C14.2719 12.3842 14.1581 12.0954 13.7759 11.7777C13.5144 11.5602 13.5144 11.5263 13.7759 11.3089C14.1581 10.9911 14.272 10.7024 14.2286 10.2076C14.2004 9.88509 14.2161 9.86799 14.5387 9.89622C15.0336 9.93983 15.322 9.82515 15.6389 9.44243C15.8556 9.181 15.8887 9.181 16.1053 9.44243C16.4224 9.82515 16.7106 9.93966 17.2055 9.89622C17.5282 9.86782 17.5438 9.88509 17.5156 10.2075C17.4723 10.7024 17.5861 10.9911 17.9683 11.3088C18.2298 11.5263 18.2299 11.5603 17.9683 11.7777C17.5861 12.0954 17.4722 12.3841 17.5156 12.8789C17.5439 13.2014 17.5282 13.2187 17.2056 13.1903C17.0032 13.1725 16.7735 13.1523 16.5714 13.2363C16.3758 13.3176 16.2382 13.4836 16.1052 13.6441C16.0426 13.7198 15.9283 13.8578 15.8721 13.8825C15.8159 13.8578 15.7016 13.7198 15.6389 13.6441C15.5059 13.4836 15.3684 13.3176 15.1727 13.2363C14.9642 13.1727 14.7528 13.1574 14.5387 13.1903ZM16.0081 17.9562C15.9219 17.9161 15.8224 17.9161 15.7362 17.9562L15.2706 18.1728V14.2047C15.4235 14.3728 15.6122 14.5289 15.8721 14.5289C16.1321 14.5289 16.3208 14.3728 16.4737 14.2047V18.1728L16.0081 17.9562Z" fill="#6D6D6D"/>
<path d="M4.17972 4.65698H15.2892C15.7058 4.65698 15.7058 4.01245 15.2892 4.01245H4.17972C3.76301 4.01245 3.76301 4.65698 4.17972 4.65698Z" fill="#6D6D6D"/>
<path d="M18.1434 6.29517C18.1434 6.11719 17.9992 5.9729 17.8211 5.9729H4.17969C3.76302 5.9729 3.76302 6.61743 4.17969 6.61743H17.8212C17.9992 6.61743 18.1434 6.47314 18.1434 6.29517Z" fill="#6D6D6D"/>
<path d="M12.2524 8.25513C12.2524 8.07715 12.1082 7.93286 11.9301 7.93286H4.17969C3.76302 7.93286 3.76302 8.57739 4.17969 8.57739H11.9301C12.1081 8.57739 12.2524 8.4331 12.2524 8.25513Z" fill="#6D6D6D"/>
<path d="M8.02045 12.7473C7.84475 12.7476 7.66901 12.7478 7.49331 12.7479C7.15528 12.7482 6.96918 12.6581 6.90013 12.2996C6.83709 11.9724 6.36513 12.0141 6.27863 12.2996C6.24034 12.4261 6.04699 12.7881 5.87808 12.7585C5.78857 12.7428 5.74947 12.6047 5.71638 12.5332C5.65197 12.3941 5.60505 12.2465 5.56488 12.0987C5.39524 11.4742 5.36138 10.8222 5.25524 10.1859C5.19371 9.81691 4.63129 9.92124 4.62223 10.2716C4.59335 11.3875 4.41091 12.4882 4.01362 13.5341C3.86619 13.9223 4.48902 14.0901 4.63512 13.7055C4.7883 13.3022 4.9099 12.8892 5.00426 12.4701C5.05488 12.6228 5.11525 12.7726 5.18894 12.9183C5.37714 13.2903 5.76098 13.5103 6.17168 13.3449C6.31825 13.2858 6.45197 13.1826 6.56579 13.057C6.8707 13.4086 7.32432 13.3927 7.74752 13.3922C8.38547 13.3914 9.02343 13.3899 9.66143 13.3881C10.0761 13.3869 10.0769 12.7424 9.66143 12.7436C9.11444 12.7451 8.56745 12.7464 8.02045 12.7473Z" fill="#6D6D6D"/>
<path d="M15.873 12.8019C16.5671 12.8019 17.1318 12.2372 17.1318 11.5431C17.1318 10.8491 16.5671 10.2844 15.873 10.2844C15.179 10.2844 14.6143 10.8491 14.6143 11.5431C14.6143 12.2372 15.1789 12.8019 15.873 12.8019ZM15.873 10.929C16.2117 10.929 16.4872 11.2045 16.4872 11.5431C16.4872 11.8818 16.2117 12.1573 15.873 12.1573C15.5343 12.1573 15.2588 11.8818 15.2588 11.5431C15.2588 11.2045 15.5343 10.929 15.873 10.929Z" fill="#6D6D6D"/>
</svg>
