<svg width="32" height="32" viewBox="0 0 32 32" fill="none" xmlns="http://www.w3.org/2000/svg">
<circle cx="16" cy="16" r="16" fill="#0071C2"/>
<g clip-path="url(#clip0)">
<path d="M26.2348 9.26907C25.7757 8.78808 25.1416 8.50386 24.4202 8.50386H20.7909V8.46014C20.7909 7.91356 20.5722 7.38884 20.2006 7.03903C19.8289 6.66736 19.326 6.44873 18.7795 6.44873H12.2205C11.6521 6.44873 11.1492 6.66736 10.7776 7.03903C10.4059 7.41071 10.1873 7.91356 10.1873 8.46014V8.50386H6.57985C5.85836 8.50386 5.22433 8.78808 4.76521 9.26907C4.30608 9.7282 4 10.3841 4 11.0837V21.9715C4 22.693 4.28422 23.3271 4.76521 23.7862C5.22433 24.2453 5.88023 24.5514 6.57985 24.5514H24.4202C25.1416 24.5514 25.7757 24.2672 26.2348 23.7862C26.6939 23.3271 27 22.6712 27 21.9715V11.0837C27 10.3622 26.7158 9.7282 26.2348 9.26907ZM25.8631 21.9715H25.8413C25.8413 22.3651 25.6882 22.7149 25.4259 22.9772C25.1635 23.2396 24.8137 23.3926 24.4202 23.3926H6.57985C6.18631 23.3926 5.8365 23.2396 5.57414 22.9772C5.31179 22.7149 5.15875 22.3651 5.15875 21.9715V11.0837C5.15875 10.6902 5.31179 10.3404 5.57414 10.078C5.8365 9.81565 6.18631 9.66261 6.57985 9.66261H10.7994C11.1274 9.66261 11.3897 9.40025 11.3897 9.0723V8.43827C11.3897 8.19778 11.4772 7.97915 11.6302 7.82611C11.7833 7.67307 12.0019 7.58561 12.2424 7.58561H18.7795C19.02 7.58561 19.2386 7.67307 19.3916 7.82611C19.5447 7.97915 19.6321 8.19778 19.6321 8.43827V9.0723C19.6321 9.40025 19.8945 9.66261 20.2224 9.66261H24.442C24.8356 9.66261 25.1854 9.81565 25.4477 10.078C25.7101 10.3404 25.8631 10.6902 25.8631 11.0837V21.9715Z" fill="white"/>
<path d="M15.5004 11.1494C14.0137 11.1494 12.6582 11.7616 11.6962 12.7236C10.7124 13.7074 10.1221 15.0411 10.1221 16.5277C10.1221 18.0144 10.7342 19.37 11.6962 20.3319C12.6801 21.3158 14.0137 21.9061 15.5004 21.9061C16.9871 21.9061 18.3426 21.2939 19.3046 20.3319C20.2884 19.3481 20.8787 18.0144 20.8787 16.5277C20.8787 15.0411 20.2666 13.6855 19.3046 12.7236C18.3426 11.7616 16.9871 11.1494 15.5004 11.1494ZM18.4738 19.523C17.7086 20.2663 16.6591 20.7473 15.5004 20.7473C14.3417 20.7473 13.2922 20.2663 12.527 19.523C11.7618 18.7578 11.3027 17.7084 11.3027 16.5496C11.3027 15.3909 11.7837 14.3414 12.527 13.5762C13.2922 12.811 14.3417 12.3519 15.5004 12.3519C16.6591 12.3519 17.7086 12.8329 18.4738 13.5762C19.239 14.3414 19.6981 15.3909 19.6981 16.5496C19.72 17.7084 19.239 18.7578 18.4738 19.523Z" fill="white"/>
<path d="M23.2832 13.27C23.8749 13.27 24.3545 12.7904 24.3545 12.1987C24.3545 11.6071 23.8749 11.1274 23.2832 11.1274C22.6915 11.1274 22.2119 11.6071 22.2119 12.1987C22.2119 12.7904 22.6915 13.27 23.2832 13.27Z" fill="white"/>
</g>
<defs>
<clipPath id="clip0">
<rect width="23" height="23" fill="white" transform="translate(4 4)"/>
</clipPath>
</defs>
</svg>
