<svg width="22" height="22" viewBox="0 0 22 22" fill="none" xmlns="http://www.w3.org/2000/svg">
<g clip-path="url(#clip0)">
<path d="M7.3916 17.3096H13.0507C13.2287 17.3096 13.3729 17.1653 13.3729 16.9873C13.3729 16.8093 13.2287 16.665 13.0507 16.665H7.3916C7.21358 16.665 7.06934 16.8093 7.06934 16.9873C7.06934 17.1653 7.21358 17.3096 7.3916 17.3096Z" fill="#6D6D6D"/>
<path d="M7.3916 15.3818H13.0507C13.2287 15.3818 13.3729 15.2375 13.3729 15.0596C13.3729 14.8816 13.2287 14.7373 13.0507 14.7373H7.3916C7.21358 14.7373 7.06934 14.8816 7.06934 15.0596C7.06934 15.2375 7.21358 15.3818 7.3916 15.3818Z" fill="#6D6D6D"/>
<path d="M9.57179 8.81039H8.83148C8.27297 8.81039 8.01855 8.24776 8.01855 7.72505C8.01855 7.42547 8.10037 7.13886 8.24311 6.93876C8.38864 6.73461 8.5866 6.6311 8.83148 6.6311H9.44327C9.62129 6.6311 9.76553 6.48681 9.76553 6.30884C9.76553 6.13086 9.62129 5.98657 9.44327 5.98657H8.83148C8.37941 5.98657 7.98401 6.19183 7.71829 6.56459C7.49631 6.87594 7.37402 7.28805 7.37402 7.72505C7.37402 8.58468 7.87465 9.45492 8.83148 9.45492H9.57179C9.74981 9.45492 9.89405 9.31064 9.89405 9.13266C9.89405 8.95468 9.74977 8.81039 9.57179 8.81039Z" fill="#6D6D6D"/>
<path d="M12.7813 6.00449C12.613 5.9461 12.4295 6.03513 12.3711 6.20331L11.6386 8.31432L10.9061 6.20331C10.8478 6.03517 10.6643 5.94622 10.496 6.00449C10.3279 6.06284 10.2389 6.24645 10.2972 6.41458L11.2516 9.16497C11.2536 9.17086 11.2558 9.17666 11.2582 9.18238C11.327 9.34888 11.471 9.4536 11.634 9.45553C11.6356 9.45553 11.6372 9.45557 11.6388 9.45557C11.8015 9.45557 11.9423 9.3564 12.016 9.18951C12.0195 9.18143 12.0228 9.17327 12.0257 9.16493L12.9801 6.41454C13.0384 6.24645 12.9494 6.06284 12.7813 6.00449Z" fill="#6D6D6D"/>
<path d="M21.2458 14.9045L18.5898 12.565V8.57828C18.5898 8.4003 18.4455 8.25602 18.2675 8.25602C18.0895 8.25602 17.9453 8.4003 17.9453 8.57828V11.9972L17.2721 11.4042C17.0803 11.2347 16.833 11.1503 16.5765 11.1664C16.3193 11.1826 16.0843 11.2976 15.9149 11.4903L15.5826 11.8679L14.4996 10.9138C16.222 8.70401 15.9448 5.49648 13.8151 3.62162C12.7446 2.67794 11.3707 2.20795 9.94683 2.29844C8.52307 2.38885 7.21974 3.02852 6.27687 4.09965L6.27696 4.09956C4.33005 6.30979 4.54442 9.69302 6.75477 11.6415C7.73858 12.5081 8.97815 12.975 10.2774 12.975C10.3922 12.975 10.5076 12.9713 10.6232 12.964C11.9395 12.8804 13.1527 12.327 14.0738 11.3976L15.1568 12.3517L14.8236 12.7302C14.8235 12.7303 14.8235 12.7303 14.8235 12.7303C14.4734 13.1284 14.5123 13.7371 14.9099 14.087L17.9453 16.7616V19.5073H3.11884V0.644531H14.7452L14.7432 2.31743C14.7432 3.07828 15.3625 3.69725 16.1238 3.69725H17.9453V7.08374C17.9453 7.26172 18.0895 7.40601 18.2676 7.40601C18.4456 7.40601 18.5898 7.26172 18.5898 7.08374V3.43372C18.5898 3.42156 18.5894 3.40979 18.5887 3.39831C18.5892 3.39058 18.5898 3.38284 18.5898 3.37498C18.5898 3.27293 18.5423 3.18214 18.4683 3.1231C18.4452 3.0977 18.4213 3.0751 18.3987 3.05396C18.3832 3.03935 18.365 3.02229 18.3438 3.00154C18.3428 3.00055 18.3418 2.99952 18.3407 2.99853L15.4593 0.250809L15.4161 0.209215C15.3642 0.159156 15.3134 0.110816 15.254 0.0730039C15.2254 0.0526367 15.1933 0.0368672 15.1587 0.0267266C15.1124 0.0103555 15.0607 0 14.9994 0H3.05968C2.73689 0 2.47431 0.262625 2.47431 0.585449V1.84705H1.01505C0.692312 1.84705 0.42973 2.11024 0.42973 2.43371V10.6457C0.42973 10.8237 0.573977 10.9679 0.751996 10.9679C0.930016 10.9679 1.07426 10.8237 1.07426 10.6457V2.49159H2.47431V19.5663C2.47431 19.8891 2.73689 20.1517 3.05968 20.1517H15.9007V21.3555H1.08754C1.08182 21.3431 1.07736 21.3302 1.07667 21.3227L1.07422 12.1413C1.07418 11.9634 0.929887 11.8191 0.751867 11.8192C0.573848 11.8192 0.429645 11.9635 0.429688 12.1415L0.432137 21.3228C0.432137 21.6056 0.653898 22 1.01501 22H15.9598C16.2826 22 16.5452 21.7374 16.5452 21.4146V20.1517H18.0045C18.3272 20.1517 18.5898 19.8891 18.5898 19.5662V17.3295L18.883 17.5878C19.0597 17.7433 19.2826 17.8271 19.5165 17.8271C19.5373 17.8271 19.5582 17.8264 19.5792 17.8251C19.8358 17.8088 20.0704 17.6937 20.2396 17.5013L21.3306 16.2618C21.6814 15.8648 21.6435 15.2561 21.2458 14.9045ZM10.5823 12.3207C9.33015 12.4002 8.1223 11.9872 7.18085 11.1579C5.23707 9.4444 5.04853 6.46916 6.76057 4.52555C6.76062 4.52555 6.76062 4.52551 6.76066 4.52547C7.58974 3.58364 8.73576 3.02113 9.9877 2.94164C10.0894 2.9352 10.1907 2.93197 10.2917 2.93197C11.4341 2.93197 12.5241 3.34275 13.3891 4.10519C15.3331 5.81672 15.5223 8.79115 13.8108 10.7359C13.8107 10.736 13.8106 10.736 13.8105 10.7361C13.8104 10.7362 13.8103 10.7363 13.8102 10.7364C12.9807 11.6786 11.8344 12.2412 10.5823 12.3207ZM17.4636 3.05271H16.1238C15.718 3.05271 15.3877 2.72284 15.3877 2.31782L15.3893 1.07426L17.4636 3.05271ZM20.8472 15.8355L19.7557 17.0756C19.7002 17.1387 19.6229 17.1765 19.5382 17.1819C19.4534 17.1875 19.372 17.1596 19.309 17.1041L15.3358 13.6033C15.2047 13.4879 15.192 13.2874 15.3074 13.1561L16.3989 11.916C16.4545 11.8528 16.5319 11.815 16.617 11.8097C16.702 11.8046 16.7826 11.8319 16.8456 11.8875L20.8193 15.3878C20.9482 15.5017 20.9611 15.7066 20.8472 15.8355Z" fill="#6D6D6D"/>
</g>
<defs>
<clipPath id="clip0">
<rect width="22" height="22" fill="white"/>
</clipPath>
</defs>
</svg>
