<svg width="24" height="24" viewBox="0 0 24 24" fill="none" xmlns="http://www.w3.org/2000/svg">
<g clip-path="url(#clip0)">
<path d="M2.85714 9.14307C1.28171 9.14307 0 10.4248 0 12.0002C0 13.5756 1.28171 14.8573 2.85714 14.8573C4.43257 14.8573 5.71429 13.5756 5.71429 12.0002C5.71429 10.4248 4.43257 9.14307 2.85714 9.14307Z" fill="#CCCCCC"/>
<path d="M11.9997 9.14307C10.4243 9.14307 9.14258 10.4248 9.14258 12.0002C9.14258 13.5756 10.4243 14.8573 11.9997 14.8573C13.5751 14.8573 14.8569 13.5756 14.8569 12.0002C14.8569 10.4248 13.5751 9.14307 11.9997 9.14307Z" fill="#CCCCCC"/>
<path d="M21.1433 9.14307C19.5678 9.14307 18.2861 10.4248 18.2861 12.0002C18.2861 13.5756 19.5678 14.8573 21.1433 14.8573C22.7187 14.8573 24.0004 13.5756 24.0004 12.0002C24.0004 10.4248 22.7187 9.14307 21.1433 9.14307Z" fill="#CCCCCC"/>
</g>
<defs>
<clipPath id="clip0">
<rect width="24" height="24" fill="white"/>
</clipPath>
</defs>
</svg>
