<svg width="64" height="64" viewBox="0 0 64 64" fill="none" xmlns="http://www.w3.org/2000/svg">
<g clip-path="url(#clip0)">
<path d="M15 32.0005C15 28.8296 15.8736 25.8592 17.3914 23.3158V12.5273H6.60288C2.321 18.0883 0 24.8657 0 32.0005C0 39.1352 2.321 45.9126 6.60288 51.4736H17.3914V40.6851C15.8736 38.1417 15 35.1713 15 32.0005Z" fill="#FBBD00"/>
<path d="M32 49L24.5 56.5L32 64C39.1349 64 45.9121 61.679 51.4731 57.3971V46.6201H40.6961C38.1305 48.1434 35.1476 49 32 49Z" fill="#0F9D58"/>
<path d="M17.392 40.6846L6.60352 51.4731C7.45127 52.5741 8.37439 53.6284 9.37327 54.6274C15.4173 60.6713 23.4531 63.9999 32.0006 63.9999V48.9999C25.7976 48.9999 20.361 45.6599 17.392 40.6846Z" fill="#31AA52"/>
<path d="M64 31.9995C64 30.0527 63.8238 28.1022 63.476 26.2024L63.1946 24.665H32V39.665H47.1815C45.7072 42.5977 43.4405 44.9903 40.696 46.6198L51.473 57.3968C52.574 56.549 53.6284 55.6259 54.6274 54.627C60.6714 48.5829 64 40.547 64 31.9995Z" fill="#3C79E6"/>
<path d="M44.0209 19.9791L45.3466 21.3049L55.9533 10.6984L54.6275 9.37263C48.5835 3.32863 40.5476 0 32 0L24.5 7.5L32 15C36.5408 15 40.8099 16.7682 44.0209 19.9791Z" fill="#CF2D48"/>
<path d="M32.0008 15V0C23.4533 0 15.4174 3.32863 9.37327 9.3725C8.37439 10.3714 7.45127 11.4258 6.60352 12.5269L17.392 23.3154C20.3611 18.34 25.7978 15 32.0008 15Z" fill="#EB4132"/>
</g>
<defs>
<clipPath id="clip0">
<rect width="64" height="64" fill="white"/>
</clipPath>
</defs>
</svg>
