<svg width="707" height="438" viewBox="0 0 707 438" fill="none" xmlns="http://www.w3.org/2000/svg">
<g clip-path="url(#clip0)">
<path d="M601.932 293.314C604.28 293.428 606.623 292.981 608.774 292.008C610.925 291.034 612.827 289.562 614.329 287.706C615.832 285.849 616.893 283.661 617.43 281.312C617.968 278.963 617.966 276.518 617.425 274.169C616.885 271.821 615.82 269.634 614.315 267.78C612.811 265.926 610.907 264.456 608.754 263.486C606.601 262.516 604.258 262.072 601.91 262.19C599.561 262.308 597.272 262.984 595.221 264.165L597.903 271.706L592.386 266.27C589.427 269.046 587.663 272.913 587.481 277.023C587.411 278.465 587.541 279.909 587.866 281.314C588.62 284.611 590.402 287.567 592.94 289.732C595.478 291.898 598.635 293.155 601.932 293.314Z" fill="#57B894"/>
<path d="M646.297 376.558C643.078 370.443 646.73 362.947 650.928 357.493C655.125 352.039 660.241 346.364 660.133 339.415C659.976 329.428 649.647 323.531 641.393 318.236C635.27 314.307 629.622 309.646 624.567 304.352C622.541 302.229 620.582 299.959 619.397 297.248C617.69 293.343 617.737 288.901 617.845 284.623C618.204 270.372 618.89 256.134 619.903 241.911" stroke="#3F3D56" stroke-miterlimit="10"/>
<path d="M601.932 291.152C604.28 291.266 606.623 290.819 608.774 289.846C610.925 288.873 612.827 287.4 614.329 285.544C615.832 283.687 616.893 281.499 617.43 279.15C617.968 276.801 617.966 274.356 617.425 272.007C616.885 269.659 615.82 267.472 614.315 265.618C612.811 263.764 610.907 262.294 608.754 261.324C606.601 260.354 604.258 259.911 601.91 260.028C599.561 260.146 597.272 260.822 595.221 262.003L597.903 269.545L592.386 264.108C589.427 266.884 587.663 270.751 587.481 274.861C587.411 276.303 587.541 277.747 587.866 279.152C588.62 282.449 590.402 285.405 592.94 287.57C595.478 289.736 598.635 290.993 601.932 291.152V291.152Z" stroke="#3F3D56" stroke-miterlimit="10"/>
<path d="M604.214 244.014C604.332 241.406 605.088 238.869 606.413 236.639C607.737 234.408 609.587 232.556 611.792 231.252L615.19 238.151L615.088 229.8C618.175 228.866 621.471 228.964 624.5 230.079C627.529 231.193 630.135 233.267 631.941 236C633.747 238.733 634.66 241.985 634.548 245.285C634.436 248.585 633.305 251.764 631.318 254.362C629.33 256.959 626.59 258.842 623.493 259.737C620.395 260.632 617.101 260.494 614.085 259.343C611.069 258.191 608.487 256.086 606.713 253.331C604.939 250.576 604.064 247.313 604.214 244.014Z" fill="#57B894"/>
<path d="M604.214 241.132C604.332 238.523 605.088 235.986 606.413 233.756C607.737 231.526 609.587 229.673 611.792 228.37L615.19 235.269L615.088 226.917C618.175 225.984 621.471 226.082 624.5 227.196C627.529 228.31 630.135 230.384 631.941 233.117C633.747 235.851 634.66 239.102 634.548 242.403C634.436 245.703 633.305 248.881 631.318 251.479C629.33 254.077 626.59 255.959 623.493 256.854C620.395 257.75 617.101 257.612 614.085 256.46C611.069 255.309 608.487 253.204 606.713 250.448C604.939 247.693 604.064 244.431 604.214 241.132V241.132Z" stroke="#3F3D56" stroke-miterlimit="10"/>
<path d="M638.893 319.195C642.617 319.374 646.274 318.14 649.169 315.729C652.063 313.317 653.991 309.898 654.586 306.121C655.181 302.345 654.402 298.476 652.396 295.251C650.389 292.027 647.297 289.673 643.709 288.637L643.787 295.055L640.351 288.074C640.337 288.072 640.324 288.071 640.31 288.072C638.318 287.976 636.328 288.284 634.453 288.978C632.577 289.672 630.854 290.738 629.38 292.116C627.906 293.493 626.711 295.155 625.863 297.007C625.015 298.858 624.53 300.863 624.437 302.906C624.344 304.95 624.645 306.992 625.321 308.917C625.997 310.842 627.036 312.611 628.378 314.123C629.72 315.636 631.34 316.862 633.144 317.732C634.948 318.603 636.902 319.1 638.893 319.195Z" fill="#57B894"/>
<path d="M638.776 316.313C642.5 316.491 646.158 315.257 649.052 312.846C651.946 310.435 653.874 307.015 654.47 303.239C655.065 299.462 654.285 295.593 652.279 292.369C650.273 289.144 647.181 286.79 643.592 285.755L643.671 292.173L640.234 285.192C640.221 285.19 640.207 285.189 640.193 285.189C638.202 285.094 636.212 285.402 634.336 286.095C632.461 286.789 630.737 287.855 629.263 289.233C627.789 290.611 626.594 292.273 625.746 294.124C624.898 295.976 624.414 297.98 624.321 300.024C624.228 302.068 624.528 304.11 625.204 306.034C625.88 307.959 626.919 309.728 628.261 311.241C629.604 312.753 631.223 313.98 633.027 314.85C634.832 315.72 636.785 316.217 638.776 316.313V316.313Z" stroke="#3F3D56" stroke-miterlimit="10"/>
<path d="M631.283 348.716C632.876 351.892 635.484 354.41 638.672 355.847C641.859 357.284 645.43 357.552 648.787 356.608C652.144 355.663 655.083 353.562 657.11 350.658C659.137 347.754 660.129 344.222 659.921 340.657C659.712 337.091 658.314 333.707 655.963 331.073C653.612 328.438 650.449 326.714 647.006 326.189C643.563 325.663 640.048 326.369 637.052 328.187C634.055 330.005 631.759 332.825 630.548 336.175L640.029 344.092L629.6 341.611C629.598 344.083 630.175 346.52 631.283 348.716Z" fill="#57B894"/>
<path d="M631.283 346.554C632.876 349.73 635.484 352.248 638.672 353.685C641.859 355.122 645.43 355.39 648.787 354.445C652.144 353.501 655.083 351.4 657.11 348.496C659.137 345.592 660.129 342.06 659.921 338.494C659.712 334.928 658.314 331.545 655.963 328.91C653.612 326.276 650.449 324.552 647.006 324.027C643.563 323.501 640.048 324.207 637.052 326.025C634.055 327.843 631.759 330.663 630.548 334.013L640.029 341.929L629.6 339.449C629.598 341.921 630.175 344.358 631.283 346.554V346.554Z" stroke="#3F3D56" stroke-miterlimit="10"/>
<path d="M515.486 110.052C517.316 117.446 515.922 125.398 512.825 132.333C509.728 139.268 505.023 145.313 500.045 150.977C497.539 153.827 494.829 156.857 494.297 160.656C493.589 165.722 496.917 170.306 499.152 174.881C501.107 178.887 502.293 183.242 502.645 187.708C502.946 191.543 502.478 195.77 499.861 198.524C497.337 201.18 493.461 201.822 489.862 202.166C479.95 203.11 469.964 202.862 460.108 201.428C462.87 197.658 461.832 195.319 461.572 190.61C461.063 181.373 454.512 173.009 453.24 163.849C452.229 156.567 456.926 149.881 461.366 144.107L481.725 117.628C485.099 113.24 488.459 108.72 490.881 103.69C492.612 100.095 492.937 93.3462 497.292 92.1476C505.498 89.8891 513.89 103.603 515.486 110.052Z" fill="#47465A"/>
<path d="M415.576 131.878C415.576 131.878 401.532 174.396 394.509 177.278C387.487 180.161 436.643 232.047 436.643 232.047L472.457 214.031L473.861 179.44L459.816 178.72C459.816 178.72 457.71 164.307 464.732 157.1C471.754 149.894 415.576 131.878 415.576 131.878Z" fill="#FBBEBE"/>
<path opacity="0.1" d="M415.576 131.878C415.576 131.878 401.532 174.396 394.509 177.278C387.487 180.161 436.643 232.047 436.643 232.047L472.457 214.031L473.861 179.44L459.816 178.72C459.816 178.72 457.71 164.307 464.732 157.1C471.754 149.894 415.576 131.878 415.576 131.878Z" fill="black"/>
<path d="M431.727 203.942C431.727 203.942 401.532 183.043 400.127 165.748C400.127 165.748 377.656 180.882 370.634 180.161C363.611 179.44 344.651 183.764 344.651 186.647C344.651 189.529 362.207 270.962 362.207 270.962C362.207 270.962 349.567 305.553 355.887 316.363C362.207 327.172 365.718 377.617 365.718 377.617H511.781C511.781 377.617 492.119 342.306 502.652 317.083C513.186 291.861 517.399 185.926 517.399 185.926C517.399 185.926 509.674 180.161 501.95 181.602C494.226 183.043 485.097 177.278 479.479 176.558C473.861 175.837 461.13 178.787 461.13 178.787L431.727 203.942Z" fill="#2777C6"/>
<path d="M707 376.845V408.553C707 414.133 704.857 419.489 701.036 423.459C697.215 427.429 692.024 429.693 686.587 429.762L36.4539 437.999C34.8828 438.019 33.3234 437.719 31.8663 437.115C30.4092 436.512 29.0832 435.618 27.9654 434.485C26.8475 433.352 25.96 432.002 25.3542 430.515C24.7484 429.027 24.4365 427.43 24.4365 425.818V390.767C24.4365 387.629 25.6269 384.614 27.7555 382.361C29.8841 380.108 32.7837 378.794 35.8401 378.697L688.1 358.038C690.554 357.96 692.998 358.389 695.288 359.299C697.577 360.21 699.666 361.582 701.428 363.336C703.191 365.09 704.593 367.19 705.55 369.51C706.507 371.831 707 374.325 707 376.845Z" fill="#47465A"/>
<path opacity="0.1" d="M707 399.957V408.553C707 414.133 704.857 419.489 701.036 423.459C697.215 427.429 692.024 429.693 686.587 429.762L36.4539 437.999C34.8828 438.019 33.3234 437.719 31.8663 437.115C30.4092 436.512 29.0832 435.618 27.9654 434.485C26.8475 433.352 25.96 432.002 25.3542 430.515C24.7484 429.027 24.4365 427.43 24.4365 425.818V424.69L707 399.957Z" fill="black"/>
<path d="M579.195 377.617L496.937 366.664L350.665 372.14L403.639 389.147L579.195 377.617Z" fill="#F2F2F2"/>
<path d="M360.803 372.573V381.22L280.749 399.957L272.926 398.105L271.62 397.795L214.038 366.087L360.803 372.573Z" fill="#9493B6"/>
<path opacity="0.1" d="M360.803 372.573V381.22L280.749 399.957L272.926 398.105L271.62 389.148L360.803 372.573Z" fill="black"/>
<path d="M268.811 386.265C270.216 385.544 299.709 379.779 299.709 379.779L246.34 374.735L268.811 386.265Z" fill="#47465A"/>
<path d="M453.496 168.631C478.705 168.631 499.141 147.659 499.141 121.789C499.141 95.9188 478.705 74.947 453.496 74.947C428.287 74.947 407.852 95.9188 407.852 121.789C407.852 147.659 428.287 168.631 453.496 168.631Z" fill="#FBBEBE"/>
<path d="M320.776 333.658C320.776 333.658 280.047 351.674 270.216 346.63C260.384 341.585 230.891 328.613 221.762 355.277C214.4 376.78 257.377 378.13 274.289 377.847C276.334 377.813 278.348 377.324 280.19 376.413C282.033 375.502 283.661 374.192 284.962 372.573L343.598 352.034C343.598 352.034 330.607 329.334 320.776 333.658Z" fill="#FBBEBE"/>
<path d="M435.941 300.508L440.856 304.832L395.212 371.131C395.212 371.131 388.189 371.852 390.296 368.249L435.941 300.508Z" fill="#47465A"/>
<path d="M438.75 304.832L443.666 298.346L441.559 296.905L436.644 302.67L438.75 304.832Z" fill="#47465A"/>
<path d="M355.536 181.963C355.536 181.963 331.66 186.287 332.363 205.023C333.065 223.76 327.096 245.019 321.478 255.108C315.86 265.197 320.074 273.124 321.478 286.816C322.882 300.508 314.456 314.921 318.669 322.128C322.882 329.334 273.024 334.379 273.024 341.585C273.024 348.792 304.625 362.484 299.007 371.852C294.965 378.592 323.454 367.242 339.757 360.342C344.003 358.585 347.773 355.803 350.747 352.232C353.721 348.661 355.812 344.406 356.842 339.829C357.335 337.532 357.467 335.46 356.94 334.018C354.834 328.253 379.763 320.687 380.465 306.274C381.167 291.861 376.954 277.448 373.443 263.035C369.932 248.622 355.536 181.963 355.536 181.963Z" fill="#2777C6"/>
<path d="M7.56714 257.386L213.487 259.385C214.911 259.399 216.301 259.829 217.495 260.625C218.689 261.421 219.637 262.55 220.228 263.879L275.723 388.658C276.253 389.849 276.477 391.159 276.375 392.464C276.273 393.769 275.847 395.026 275.139 396.115C274.431 397.204 273.463 398.089 272.328 398.686C271.193 399.283 269.928 399.573 268.653 399.528L62.0098 392.192C60.6338 392.144 59.2976 391.706 58.148 390.929C56.9985 390.151 56.0801 389.063 55.4938 387.785L0.721463 268.341C0.181894 267.164 -0.0578497 265.866 0.0246914 264.569C0.107233 263.271 0.509356 262.016 1.1934 260.921C1.87744 259.827 2.82103 258.928 3.93578 258.31C5.05054 257.691 6.29999 257.373 7.56714 257.386Z" fill="#7A799C"/>
<path d="M493.523 333.658C493.523 333.658 452.794 351.674 442.963 346.63C433.132 341.585 403.639 328.614 394.51 355.277C387.148 376.78 430.124 378.13 447.037 377.847C449.082 377.813 451.095 377.324 452.938 376.413C454.781 375.502 456.409 374.192 457.71 372.573L517.399 366.087C517.399 366.087 503.355 329.334 493.523 333.658Z" fill="#FBBEBE"/>
<path opacity="0.1" d="M517.75 197.096C517.75 197.096 527.932 183.044 532.848 196.015C537.763 208.987 537.061 259.432 537.061 259.432C537.061 259.432 545.488 284.654 542.679 301.229C539.87 317.804 545.488 319.966 545.488 319.966C545.488 319.966 546.892 327.172 542.679 330.776C538.466 334.379 535.657 350.233 537.061 352.395C538.466 354.557 534.955 368.249 532.146 368.249C529.337 368.249 523.368 367.168 523.368 367.168C523.368 367.168 508.972 340.144 478.776 337.982C478.776 337.982 483.692 330.776 480.883 316.363C478.074 301.95 517.75 197.096 517.75 197.096Z" fill="black"/>
<path d="M515.995 186.647C515.995 186.647 527.581 181.963 532.497 194.934C537.413 207.906 541.977 259.432 541.977 259.432C541.977 259.432 550.404 284.654 547.595 301.229C544.786 317.804 550.404 319.966 550.404 319.966C550.404 319.966 551.808 327.172 547.595 330.775C543.382 334.379 540.573 350.233 541.977 352.395C543.382 354.557 539.87 368.249 537.062 368.249C534.253 368.249 508.27 372.573 508.27 372.573C508.27 372.573 513.888 340.144 483.692 337.982C483.692 337.982 488.608 330.775 485.799 316.363C482.99 301.95 515.995 186.647 515.995 186.647Z" fill="#2777C6"/>
<path d="M468.787 55.6857C461.784 51.1909 453.86 48.427 445.639 47.6118C437.418 46.7966 429.125 47.9526 421.413 50.9885C413.146 54.3255 405.844 59.7587 399.015 65.5889C393.536 70.2659 388.193 75.3681 384.827 81.8143C379.724 91.588 379.739 103.222 379.877 114.31C379.997 123.963 380.12 133.646 381.402 143.21C383.16 156.327 387.099 169.314 386.194 182.523C385.29 195.731 377.726 209.823 365.081 212.458C376.844 213.371 388.668 213.022 400.36 211.415C407.729 210.402 415.464 208.67 420.852 203.412C424.787 199.572 427.011 194.278 428.946 189.071C430.891 183.838 432.671 178.4 432.603 172.8C432.461 161.148 424.576 151.373 419.43 140.985C417.986 138.069 416.718 134.934 416.768 131.664C416.819 128.393 418.482 124.96 421.444 123.752C425.099 122.262 429.331 124.485 433.131 123.444C439.236 121.77 440.82 113.07 446.425 110.075C450.573 107.86 455.866 109.521 459.353 112.717C460.912 114.147 462.248 115.874 464.057 116.951C466.509 118.41 469.488 118.481 472.323 118.514C477.615 118.574 495.678 110.061 499.492 106.295C503.213 125.935 530.88 108.842 515.002 79.8669C509.474 69.7781 502.141 60.4078 492.386 54.5971C482.631 48.7865 470.186 46.9843 459.945 51.8356" fill="#47465A"/>
<path d="M421.545 144.489C425.036 144.489 427.865 139.327 427.865 132.959C427.865 126.591 425.036 121.428 421.545 121.428C418.055 121.428 415.225 126.591 415.225 132.959C415.225 139.327 418.055 144.489 421.545 144.489Z" fill="#FBBEBE"/>
<path d="M483.692 177.652C483.692 177.652 522.666 183.404 524.772 186.286C526.879 189.169 522.666 206.465 522.666 206.465L494.577 211.509L472.962 206.726L483.692 177.652Z" fill="#2777C6"/>
<path opacity="0.1" d="M364.23 205.871C358.361 204.833 352.636 210.284 349.597 217.472C346.558 224.66 345.732 233.272 345.433 241.64C345.137 249.956 345.312 258.449 347.157 266.355C350.947 282.59 361.12 294.069 367.007 308.997C371.529 320.842 373.358 333.59 372.354 346.269" fill="black"/>
<path d="M368.444 205.871C362.574 204.833 356.849 210.284 353.81 217.472C350.771 224.66 349.946 233.272 349.647 241.64C349.35 249.956 349.526 258.449 351.371 266.355C355.16 282.59 365.333 294.069 371.22 308.997C375.742 320.842 377.571 333.59 376.567 346.269" fill="#2777C6"/>
<path d="M594.152 366.893L662.084 394.779L704.542 386.936L700.839 355.748L700.296 351.208L628.968 328.551L623.873 333.779L594.152 366.893Z" fill="#2777C6"/>
<path opacity="0.1" d="M633.214 334.102V364.279L704.543 386.936L700.84 355.748L633.214 334.102Z" fill="black"/>
<path d="M567.552 373.41L572.36 375.237L629.694 397.027L634.149 398.72C634.29 398.774 634.44 398.793 634.589 398.775C634.738 398.757 634.88 398.703 635.004 398.617L640.255 395.004L694.872 357.4L700.032 353.849C700.181 353.747 700.299 353.603 700.371 353.435C700.444 353.266 700.468 353.08 700.442 352.898C700.416 352.716 700.34 352.545 700.223 352.406C700.105 352.266 699.952 352.164 699.781 352.11L691.553 349.524L633.717 331.342L628.667 329.752C628.532 329.709 628.389 329.698 628.249 329.719C628.109 329.741 627.975 329.794 627.858 329.876L623.88 332.627L572.35 368.238L567.356 371.691C567.212 371.791 567.096 371.93 567.023 372.092C566.951 372.254 566.923 372.434 566.943 372.612C566.963 372.79 567.031 372.958 567.138 373.099C567.246 373.24 567.389 373.347 567.552 373.41Z" fill="#7A799C"/>
<path d="M685.848 357.092L634.671 392.811C634.424 392.984 634.14 393.093 633.844 393.131C633.547 393.169 633.246 393.134 632.965 393.029L578.634 372.673C578.303 372.549 578.013 372.332 577.796 372.048C577.578 371.763 577.442 371.423 577.402 371.064C577.362 370.705 577.42 370.341 577.57 370.014C577.72 369.687 577.955 369.409 578.25 369.211L627.784 336.038C628.016 335.882 628.279 335.781 628.553 335.742C628.828 335.703 629.107 335.726 629.372 335.81L685.346 353.62C685.686 353.729 685.99 353.935 686.222 354.214C686.454 354.492 686.605 354.832 686.658 355.194C686.71 355.557 686.662 355.927 686.519 356.263C686.376 356.598 686.143 356.886 685.848 357.092Z" fill="#F2F2F2"/>
<path d="M691.553 349.524V357.4H694.872L700.032 353.849C700.181 353.747 700.299 353.603 700.371 353.435C700.444 353.266 700.468 353.08 700.442 352.898C700.416 352.716 700.339 352.545 700.222 352.406C700.105 352.266 699.952 352.164 699.781 352.11L691.553 349.524Z" fill="#2777C6"/>
<path d="M629.693 394.56V397.027L634.149 398.72C634.289 398.774 634.44 398.793 634.589 398.775C634.738 398.757 634.88 398.703 635.004 398.617L640.255 395.004V394.56H629.693Z" fill="#2777C6"/>
<path d="M567.552 373.41L572.36 375.237V368.239H572.35L567.356 371.691C567.212 371.791 567.096 371.93 567.023 372.092C566.951 372.255 566.923 372.434 566.943 372.612C566.963 372.79 567.031 372.958 567.138 373.099C567.246 373.24 567.389 373.347 567.552 373.41Z" fill="#2777C6"/>
<path d="M623.879 332.627H633.717V331.342L628.667 329.752C628.532 329.709 628.389 329.698 628.249 329.719C628.108 329.741 627.975 329.794 627.858 329.876L623.879 332.627Z" fill="#2777C6"/>
<path d="M602.368 350.233C602.756 350.233 603.07 349.91 603.07 349.512C603.07 349.114 602.756 348.792 602.368 348.792C601.98 348.792 601.666 349.114 601.666 349.512C601.666 349.91 601.98 350.233 602.368 350.233Z" fill="#F2F2F2"/>
<path d="M303.832 18.7368H24.3457V164.307H303.832V18.7368Z" fill="#F2F2F2"/>
<path d="M73.4014 150.975L136.701 42.5181L202.36 150.975" fill="#2777C6"/>
<path d="M169.355 95.4852L181.995 61.615L253.622 150.975H169.004L169.355 95.4852Z" fill="#2777C6"/>
<path d="M156.047 82.0279C158.015 80.7924 159.727 79.171 161.084 77.2564C162.441 75.3418 163.417 73.1715 163.956 70.8695C164.495 68.5676 164.587 66.1791 164.226 63.8408C163.865 61.5024 163.059 59.2599 161.853 57.2416C160.647 55.2232 159.065 53.4686 157.198 52.0779C155.331 50.6872 153.215 49.6878 150.972 49.1368C148.728 48.5858 146.401 48.494 144.122 48.8667C141.844 49.2393 139.66 50.0691 137.694 51.3086" fill="#2777C6"/>
<path d="M320.334 0.360352H40.8477V145.93H320.334V0.360352Z" stroke="#3F3D56" stroke-miterlimit="10"/>
<path d="M76.9126 145.93L140.213 37.4734L205.871 145.93" stroke="#3F3D56" stroke-miterlimit="10"/>
<path d="M171.462 88.9994L184.102 55.1292L255.729 145.93" stroke="#3F3D56" stroke-miterlimit="10"/>
<path d="M160.963 71.9388C162.931 70.7033 164.642 69.0819 165.999 67.1673C167.356 65.2527 168.332 63.0823 168.871 60.7804C169.411 58.4785 169.502 56.09 169.142 53.7517C168.781 51.4133 167.974 49.1708 166.769 47.1525C165.563 45.1341 163.981 43.3795 162.114 41.9888C160.247 40.5981 158.131 39.5987 155.887 39.0477C153.644 38.4967 151.316 38.4049 149.038 38.7776C146.76 39.1502 144.575 39.98 142.61 41.2195" stroke="#3F3D56" stroke-miterlimit="10"/>
</g>
<defs>
<clipPath id="clip0">
<rect width="707" height="438" fill="white"/>
</clipPath>
</defs>
</svg>
