<svg width="48" height="48" viewBox="0 0 48 48" fill="none" xmlns="http://www.w3.org/2000/svg">
<rect width="48" height="48" rx="24" fill="#0077B5"/>
<path d="M37.3252 35.3251C35.7502 35.2876 34.2127 35.2876 32.6377 35.3251C32.3002 35.3251 32.2252 35.2501 32.2252 34.9126C32.2252 32.1376 32.2252 29.3251 32.2252 26.5501C32.2252 25.9126 32.1877 25.2751 32.0002 24.6751C31.4377 22.7251 29.1877 22.0126 27.5752 23.3251C26.7127 24.0001 26.3752 24.9376 26.3752 26.0626C26.3752 28.6876 26.3752 31.3126 26.3752 33.9376C26.3752 34.2751 26.3377 34.6126 26.3752 34.9876C26.4127 35.2876 26.2627 35.3626 26.0002 35.3251C24.3877 35.3251 22.8127 35.3251 21.2002 35.3251C20.9002 35.3251 20.8252 35.2501 20.8252 34.9501C20.8627 32.5876 20.8627 30.2251 20.8627 27.8251C20.8627 24.9001 20.8627 21.9751 20.8252 19.0876C20.8252 18.7501 20.9002 18.6751 21.2002 18.6751C22.8127 18.6751 24.3877 18.6751 26.0002 18.6751C26.3002 18.6751 26.3752 18.7501 26.3752 19.0501C26.3752 19.6501 26.3752 20.2501 26.3752 20.9626C26.4877 20.8501 26.5252 20.8126 26.5627 20.7751C28.0252 18.6376 30.0877 18.0376 32.5252 18.4126C35.3377 18.8626 37.1377 20.8126 37.5877 23.8126C37.7002 24.5251 37.7377 25.2376 37.7377 25.9501C37.7377 28.9501 37.7377 31.9126 37.7377 34.9126C37.7377 35.2126 37.6627 35.3251 37.3252 35.3251Z" fill="white"/>
<path d="M17.825 27C17.825 29.625 17.825 32.25 17.825 34.875C17.825 35.2125 17.75 35.325 17.4125 35.325C15.8375 35.2875 14.2625 35.325 12.6875 35.325C12.3875 35.325 12.3125 35.25 12.3125 34.95C12.3125 29.6625 12.3125 24.3375 12.3125 19.05C12.3125 18.7875 12.3875 18.675 12.6875 18.675C14.3 18.675 15.9125 18.675 17.525 18.675C17.8625 18.675 17.9 18.7875 17.9 19.0875C17.825 21.7125 17.825 24.3375 17.825 27Z" fill="white"/>
<path d="M18.0874 14.325C17.7124 15.825 16.1749 16.6875 14.4124 16.3875C12.5374 16.0875 11.4874 14.25 12.1624 12.45C12.6124 11.325 13.6999 10.65 15.0874 10.6875C17.1874 10.65 18.5749 12.3375 18.0874 14.325Z" fill="white"/>
</svg>