<svg
									width="55"
									height="57"
									viewBox="0 0 55 57"
									fill="none"
									xmlns="http://www.w3.org/2000/svg"
								>
									<path
										fill-rule="evenodd"
										clip-rule="evenodd"
										d="M13.749 23.32C13.749 15.3444 19.9613 8.90625 27.6571 8.90625C35.3529 8.90625 41.5651 15.3444 41.5651 23.32C41.5651 32.9292 27.6571 47.343 27.6571 47.343C27.6571 47.343 13.749 32.9292 13.749 23.32ZM36.9301 23.3199C36.9301 18.0349 32.804 13.7107 27.6581 13.7107C22.5584 13.7107 18.386 18.0349 18.386 23.3199C18.386 28.653 22.5584 32.9291 27.6581 32.9291C32.804 32.9291 36.9301 28.653 36.9301 23.3199Z"
										fill="#212B36"
									/>
									<mask
										id="mask0"
										mask-type="alpha"
										maskUnits="userSpaceOnUse"
										x="13"
										y="8"
										width="29"
										height="40"
									>
										<path
											fill-rule="evenodd"
											clip-rule="evenodd"
											d="M13.749 23.32C13.749 15.3444 19.9613 8.90625 27.6571 8.90625C35.3529 8.90625 41.5651 15.3444 41.5651 23.32C41.5651 32.9292 27.6571 47.343 27.6571 47.343C27.6571 47.343 13.749 32.9292 13.749 23.32ZM36.9301 23.3199C36.9301 18.0349 32.804 13.7107 27.6581 13.7107C22.5584 13.7107 18.386 18.0349 18.386 23.3199C18.386 28.653 22.5584 32.9291 27.6581 32.9291C32.804 32.9291 36.9301 28.653 36.9301 23.3199Z"
											fill="white"
										/>
									</mask>
									<g mask="url(#mask0)"></g>
								</svg>