<svg width="73" height="57" viewBox="0 0 73 57" fill="none" xmlns="http://www.w3.org/2000/svg">
<path d="M28.7004 53.6312C35.578 54.0373 42.0179 51.9709 47.0307 48.2415L47.8065 49.2106C42.5585 53.0871 35.8234 55.2386 28.621 54.8133C13.0782 53.8957 1.32585 41.3447 2.29923 26.8417C3.27261 12.3386 16.6102 1.26901 32.1531 2.18667C36.2729 2.42991 40.128 3.49152 43.5507 5.19083L42.7831 6.16239C39.5575 4.58225 35.9361 3.59681 32.0737 3.36877C17.3239 2.49793 4.55862 13.011 3.62511 26.92C2.6916 40.829 13.9505 52.7604 28.7004 53.6312Z" stroke="#5B86BF"/>
<path fill-rule="evenodd" clip-rule="evenodd" d="M43.6192 43.3478C39.4097 46.6462 33.8083 48.3668 27.9157 47.6972C16.5614 46.407 8.4254 36.7308 9.74333 26.0848C11.0613 15.4389 21.3341 7.85465 32.6883 9.14492C35.1883 9.42901 37.5323 10.1197 39.6537 11.1377L40.82 9.77417C38.4226 8.57504 35.7545 7.7635 32.8995 7.43906C20.5405 6.03462 9.35854 14.2901 7.92398 25.8781C6.48942 37.4661 15.3455 47.9986 27.7045 49.4031C34.121 50.1322 40.2201 48.2576 44.8028 44.6648L43.6192 43.3478Z" fill="#5B86BF"/>
<path d="M29.1938 42.4974H21.9938V14.4974H29.1938V25.4974H32.7938L39.0338 14.4974H46.6338L38.7938 28.2974L46.5938 42.4974H38.9938L32.7938 31.0974H29.1938V42.4974Z" fill="#5B86BF"/>
<path d="M55.2 38V41H58.2V38H55.2ZM49.8 38H46.8V41H49.8V38ZM49.8 17V14H46.8V17H49.8ZM66.45 17H69.45V14H66.45V17ZM66.45 21.2V24.2H69.45V21.2H66.45ZM55.2 21.2V18.2H52.2V21.2H55.2ZM55.2 26.15H52.2V29.15H55.2V26.15ZM64.05 26.15H67.05V23.15H64.05V26.15ZM64.05 30.35V33.35H67.05V30.35H64.05ZM55.2 30.35V27.35H52.2V30.35H55.2ZM55.2 35H49.8V41H55.2V35ZM52.8 38V17H46.8V38H52.8ZM49.8 20H66.45V14H49.8V20ZM63.45 17V21.2H69.45V17H63.45ZM66.45 18.2H55.2V24.2H66.45V18.2ZM52.2 21.2V26.15H58.2V21.2H52.2ZM55.2 29.15H64.05V23.15H55.2V29.15ZM61.05 26.15V30.35H67.05V26.15H61.05ZM64.05 27.35H55.2V33.35H64.05V27.35ZM52.2 30.35V38H58.2V30.35H52.2Z" fill="#5B86BF"/>
</svg>
