<svg
									width="54"
									height="58"
									viewBox="0 0 54 58"
									fill="none"
									xmlns="http://www.w3.org/2000/svg"
								>
									<path
										fill-rule="evenodd"
										clip-rule="evenodd"
										d="M27.0361 30.0653C27.7254 30.0653 28.3643 29.7281 29.1042 28.9472L43.7322 13.6662C43.1101 13.0273 41.9499 12.7256 40.2854 12.7256H13.2151C11.8027 12.7256 10.8107 13.0096 10.2558 13.5952L24.9679 28.9472C25.6909 29.7104 26.3299 30.0653 27.0361 30.0653ZM8.8598 40.4479L20.7472 28.0421L8.82617 15.6363C8.57396 16.1332 8.43945 16.9851 8.43945 18.2097V37.8035C8.43945 39.0636 8.57396 39.951 8.8598 40.4479ZM45.1599 40.4303C45.4289 39.9156 45.5634 39.046 45.5634 37.8036V18.2099C45.5634 17.0208 45.4289 16.1688 45.1935 15.6897L33.3061 28.0422L45.1599 40.4303ZM40.7894 43.3055C42.2017 43.3055 43.1769 43.0216 43.7318 42.4536L31.609 29.7816L30.4993 30.9707C29.3391 32.1421 28.2462 32.6745 27.0356 32.6745C25.8082 32.6745 24.7153 32.1421 23.572 30.9707L22.4454 29.7816L10.3563 42.4359C10.9952 43.0216 12.1049 43.3055 13.7191 43.3055H40.7894Z"
										fill="#212B36"
									/>
								</svg>