<svg
									width="55"
									height="57"
									viewBox="0 0 55 57"
									fill="none"
									xmlns="http://www.w3.org/2000/svg"
								>
									<path
										fill-rule="evenodd"
										clip-rule="evenodd"
										d="M37.8124 48.0938C40.4392 48.0938 42.7401 47.1441 44.593 45.0339C45.6722 43.7888 46.3442 42.3327 46.3442 40.8978C46.3442 39.8426 45.9573 38.8297 45.0003 38.1122L38.7491 33.5119C37.7921 32.8366 36.998 32.4989 36.2649 32.4989C35.3486 32.4989 34.5138 33.0476 33.5771 33.9972L32.1314 35.4744C31.9074 35.7065 31.6224 35.812 31.3576 35.812C31.0522 35.812 30.7468 35.6854 30.5432 35.5799C29.2807 34.8835 27.1223 32.9632 25.1065 30.8951C23.111 28.8271 21.258 26.5902 20.6064 25.2819C20.5046 25.0497 20.3825 24.7543 20.3825 24.4378C20.3825 24.1634 20.4639 23.8891 20.6879 23.657L22.1336 22.1165C23.0295 21.1457 23.5793 20.3016 23.5793 19.3309C23.5793 18.5712 23.2332 17.7482 22.5612 16.7564L18.1833 10.3623C17.4707 9.3494 16.4729 8.90625 15.3734 8.90625C14.0295 8.90625 12.6448 9.53933 11.4435 10.7422C9.46835 12.7047 8.59277 15.1315 8.59277 17.8115C8.59277 23.868 13.0521 31.2117 18.9367 37.2892C24.8214 43.3879 31.9685 48.0938 37.8124 48.0938Z"
										fill="#212B36"
									/>
								</svg>