<svg id="SvgjsSvg1001" width="360" height="360" xmlns="http://www.w3.org/2000/svg" version="1.1" xmlns:xlink="http://www.w3.org/1999/xlink" xmlns:svgjs="http://svgjs.com/svgjs"><defs id="SvgjsDefs1002"></defs><g id="SvgjsG1008" transform="matrix(1,0,0,1,0,0)"><svg xmlns="http://www.w3.org/2000/svg" data-name="Layer 1" viewBox="0 0 700 550" width="360" height="360"><defs><clipPath id="a"><rect width="72.878" height="90.941" x="385.112" y="80.053" fill="none"></rect></clipPath></defs><path d="M310.76469,274.28783a24.70489,24.70489,0,0,1-.97858,2.91505,8.58444,8.58444,0,0,1-.71157,1.38126,4.19991,4.19991,0,0,0-.75952,1.276,11.73109,11.73109,0,0,0-.36479,2.98358c-.04632,1.02151-.11614,2.05-.26059,3.07084-.06748.5111-.15953,1.01917-.26327,1.52442-.06175.259-.09286.48935-.18.77169a1.74406,1.74406,0,0,1-.48291.73777,7.01465,7.01465,0,0,1-2.86488,1.363,37.90855,37.90855,0,0,1-6.09371,1.01145c-4.0886.382-8.18644.46432-12.27878.47414q-6.14168-.0028-12.27609-.29263l.21356-.02923c-4.44684,1.56044-8.95894,2.88019-13.49514,4.1045q-6.80376,1.83683-13.67513,3.399c-9.16058,2.07389-18.38677,3.90147-27.70887,5.15572-4.66017.62642-9.3408,1.131-14.04355,1.41916a86.24089,86.24089,0,0,1-14.15571-.131,33.74221,33.74221,0,0,1-7.00622-1.42454,14.56472,14.56472,0,0,1-3.29212-1.57215,7.33428,7.33428,0,0,1-2.5464-2.71622c-2.29552-4.26356-3.08417-9.05648-3.40229-13.74507a80.63115,80.63115,0,0,1,.51894-14.10344,124.81875,124.81875,0,0,1,2.45-13.87747,174.44486,174.44486,0,0,1,8.66023-26.78209,70.76547,70.76547,0,0,1,6.37207-12.58532,44.61816,44.61816,0,0,1,4.47024-5.50262,38.98516,38.98516,0,0,1,5.42062-4.58777,36.93321,36.93321,0,0,1,12.97842-5.66308,39.45786,39.45786,0,0,1,14.20215-.63228.50771.50771,0,0,1,.26467.12328l.02059.01824a60.30739,60.30739,0,0,1,11.7,13.56379,31.92614,31.92614,0,0,1,.52642,34.472,48.46164,48.46164,0,0,1-11.876,13.55935.82835.82835,0,0,1-1.163-.14035l-.02386-.03182-.01965-.02783-8.7338-12.38884,1.503-.2269-7.06364,21.60532-.78409-1.083c13.33315-.00842,26.66759.08187,40.00472.14058l5.00157.02409c1.662-.0014,3.3458.05053,4.99081-.04959a23.43524,23.43524,0,0,0,9.43788-2.13143,11.33186,11.33186,0,0,0,3.70966-2.93563c.50537-.5752.98876-1.34454,1.53436-1.97565a23.01661,23.01661,0,0,1,1.70361-1.90126,19.14807,19.14807,0,0,1,4.044-3.13329,21.814,21.814,0,0,1,4.70917-1.94336l-.033.01169.12222-.03976.02889-.0103a9.67907,9.67907,0,0,0,3.38089-1.88161,10.7322,10.7322,0,0,0,1.36992-1.40068c.4228-.50245.75824-1.05589,1.18162-1.62805a21.09008,21.09008,0,0,1,2.82031-3.0051,10.96807,10.96807,0,0,1,1.64829-1.29776,3.10747,3.10747,0,0,1,2.16149-.29029,2.84327,2.84327,0,0,1,1.75483,1.28021,3.84711,3.84711,0,0,1,.48946,2.07436,8.36048,8.36048,0,0,1-1.15483,3.95316,9.48967,9.48967,0,0,1-1.22841,1.65612,18.76062,18.76062,0,0,1-1.50875,1.378,12.03507,12.03507,0,0,0-2.60733,3.04112.08124.08124,0,0,1-.10912.03626.08393.08393,0,0,1-.03579-.11017,12.2309,12.2309,0,0,1,2.581-3.15528,18.56425,18.56425,0,0,0,1.45776-1.39133,9.18038,9.18038,0,0,0,1.14969-1.62524,7.97532,7.97532,0,0,0,1.01835-3.78451,3.396,3.396,0,0,0-.46221-1.81682,2.33792,2.33792,0,0,0-1.46267-1.0201,2.557,2.557,0,0,0-1.77051.28046,10.81413,10.81413,0,0,0-1.50243,1.25,20.42815,20.42815,0,0,0-2.66406,2.96721,14.19083,14.19083,0,0,1-2.61435,3.20019,10.49341,10.49341,0,0,1-3.63644,2.09588l.02854-.0103-.1214.04164-.03334.0117a20.92718,20.92718,0,0,0-4.49152,1.93237,18.1795,18.1795,0,0,0-3.7948,3.03738,22.003,22.003,0,0,0-1.60489,1.84863c-.53531.64116-.92455,1.30384-1.50314,1.999a12.45523,12.45523,0,0,1-4.01982,3.28931,24.12538,24.12538,0,0,1-9.90349,2.37915c-1.6856.11813-3.34.08047-5.013.09824l-5.00566.0241c-13.34859.05894-26.69987.149-40.05255.14058a.82579.82579,0,0,1-.82525-.82642.86283.86283,0,0,1,.04117-.25684l7.01943-21.61982a.84976.84976,0,0,1,1.50314-.2269l8.74818,12.37855-1.2063-.19977a46.90058,46.90058,0,0,0,11.48324-12.98742,31.64977,31.64977,0,0,0,4.66309-16.48937,32.53951,32.53951,0,0,0-4.98578-16.44188,59.02114,59.02114,0,0,0-11.29809-13.39725l.28491.14129a36.69621,36.69621,0,0,0-31.81945,10.259,43.89608,43.89608,0,0,0-4.45491,5.3487,65.90779,65.90779,0,0,0-6.41161,12.4141,160.46608,160.46608,0,0,0-8.66514,26.68057c-2.01857,9.1159-3.37317,18.49308-2.69318,27.80407.378,4.61374,1.2484,9.29905,3.48732,13.3011,1.03215,1.94384,3.18007,3.00768,5.30683,3.7237a32.60525,32.60525,0,0,0,6.77207,1.26922,94.27353,94.27353,0,0,0,13.94811-.015c4.65678-.30737,9.30409-.82993,13.93443-1.4746q13.886-1.98,27.61027-5.03713c9.13064-2.04652,18.225-4.35362,27.10255-7.24972l.0103-.00328a.5524.5524,0,0,1,.20374-.026c4.06123.25122,8.14234.40537,12.21632.46525,4.07433.05217,8.15416.015,12.20744-.28794a37.34041,37.34041,0,0,0,6.00331-.84678,6.57046,6.57046,0,0,0,2.65341-1.16255,1.23012,1.23012,0,0,0,.36386-.517c.07041-.20257.12163-.47882.18339-.71484.11333-.49192.21555-.98736.29379-1.487.16585-.99811.25906-2.00769.32971-3.02475a11.96549,11.96549,0,0,1,.456-3.06616,3.7785,3.7785,0,0,1,.35883-.71391c.162-.22362.32877-.41449.46689-.61122a8.33108,8.33108,0,0,0,.72046-1.32162,24.51686,24.51686,0,0,0,1.03882-2.86545.08135.08135,0,0,1,.15637.04491Z" fill="#2e6cad" class="color000 svgShape"></path><path d="M199.71755 278.3245a55.9437 55.9437 0 016.43979-4.07293 29.11439 29.11439 0 013.50159-1.62547 13.16109 13.16109 0 013.89995-.94175l-.00409 1.62618a11.82727 11.82727 0 00-3.52148.47649 28.04767 28.04767 0 00-3.53118 1.20091A55.57128 55.57128 0 00199.71755 278.3245zM219.80605 250.70382c.48771-1.46969.99753-2.91739 1.54114-4.36017.27532-.71976.55251-1.43788.85859-2.14594a11.54833 11.54833 0 011.06291-2.0498 11.37539 11.37539 0 00-.67672 2.17682c-.17415.741-.31941 1.49027-.46186 2.2388-.27778 1.49775-.52374 3.00884-.74034 4.50988zM245.27073 238.90679a37.797 37.797 0 0110.4995-1.69191 48.84966 48.84966 0 0110.66313.82362c.88245.14643 1.74618.38338 2.62114.57122l1.3091.29964 1.2863.38315 2.572.77871 2.50991.95975 1.2525.48865c.41333.17239.81133.37894 1.21788.56677l2.42768 1.15484c1.59846.80794 3.12651 1.74828 4.694 2.61821l-1.10022.29169a41.62054 41.62054 0 015.12391-6.87008 57.53715 57.53715 0 016.14705-5.87477 66.38031 66.38031 0 016.90307-4.94379c1.18045-.78315 2.44792-1.41893 3.67141-2.12723 1.24419-.6711 2.5271-1.26758 3.78813-1.90383l.2724-.13754.25824.10666a16.57579 16.57579 0 013.79188 2.305 35.05441 35.05441 0 013.21481 2.868 51.35531 51.35531 0 015.48367 6.54541c.85753 1.13332 1.6057 2.34055 2.37926 3.52814.74385 1.20607 1.44372 2.43833 2.1567 3.6596l1.98032 3.75059 1.80828 3.83129-2.06407-3.694-2.16839-3.62521c-.77355-1.17589-1.53214-2.36021-2.33178-3.51434-.83928-1.12654-1.6015-2.30664-2.48733-3.39364a50.33744 50.33744 0 00-5.579-6.238 33.845 33.845 0 00-3.18393-2.66079 17.24942 17.24942 0 00-3.45493-2.02032l.53017-.03088c-1.22583.64561-2.4733 1.25028-3.68018 1.9277-1.18572.71414-2.41529 1.3553-3.55574 2.14008a64.82453 64.82453 0 00-6.71044 4.86169 64.00607 64.00607 0 00-5.98039 5.71478 40.38781 40.38781 0 00-4.94075 6.52973l-.40514.69169-.69543-.4c-1.51553-.87157-2.99376-1.81752-4.54157-2.63248l-2.35155-1.16654c-.394-.19017-.77987-.39929-1.18057-.574l-1.21472-.49684-2.42441-1.011-2.48815-.84116-1.24689-.4166-1.27086-.3338c-.85-.211-1.69038-.472-2.55-.64326a54.88018 54.88018 0 00-10.451-1.21893A40.997 40.997 0 00245.27073 238.90679zM239.93677 324.7765a15.93381 15.93381 0 01-2.28173-5.91618 36.57606 36.57606 0 01-.72408-6.30331c-.03708-1.05612-.0062-2.10968.00093-3.1637.07135-1.05144.10433-2.10359.22082-3.14989.1159-1.04584.24935-2.08933.4166-3.12721.19895-1.03508.393-2.06851.66-3.09119.09252 1.0573.11193 2.10383.13649 3.1485.02035 1.04419.06129 2.08605.05486 3.12393.04888 2.07716.04783 4.14521.13473 6.20623.03509 2.0643.18082 4.1155.34935 6.16577A31.56933 31.56933 0 00239.93677 324.7765zM233.72457 272.54142a44.65728 44.65728 0 01-2.39155-4.54193c-.71695-1.54477-1.41085-3.09025-1.9912-4.72765a19.479 19.479 0 012.72687 4.38263A21.42378 21.42378 0 01233.72457 272.54142zM381.73554 387.57938c-1.45624-3.33422-2.94125-6.63967-4.41679-9.94512-1.51389-3.27692-3.03726-6.5536-4.75221-9.70584-1.70548-3.18077-3.49726-6.333-5.2218-9.52361q-2.61558-4.77117-5.0397-9.66724c1.61928 28.81037-14.23758 49.20869-21.36591 62.80429-7.11885 13.59561 42.09 24.27874 36.90652 15.531C372.6718 418.335 381.73554 387.57938 381.73554 387.57938zm-24.432 18.45332a13.80482 13.80482 0 00-.82385 1.993c-.11509.3448-.20117.709-.31625 1.08256-.10538.36421-.182.74736-.32573 1.13075a8.09217 8.09217 0 01-.27777-1.17847 8.58788 8.58788 0 01-.00959-1.21682 6.244 6.244 0 01.68022-2.3857 5.49441 5.49441 0 011.65752-1.8781 4.04375 4.04375 0 012.31857-.78549A9.35461 9.35461 0 00357.30359 406.0327zM438.06319 317.982c-14.24706 29.13621-16.50831 33.01663-16.50831 33.01663-1.9546-3.04675-3.89948-6.07431-5.76788-9.15965q-2.86-4.59888-5.58577-9.2649c-3.61211-6.23734-7.14762-12.513-10.3284-18.96114-.77613-1.60957-1.65764-3.229-2.52955-4.83853-.40234-.82385-.94853-1.56162-1.42759-2.34734-.05742-.08608-.11485-.182-.17239-.2683a20.57453 20.57453 0 01.68022-4.87689 32.0936 32.0936 0 012.04079-5.35572 44.5836 44.5836 0 012.8457-5.01093 47.486 47.486 0 013.41083-4.65654 46.976 46.976 0 00-3.58346 4.54146 47.48766 47.48766 0 00-3.03715 4.944 32.61008 32.61008 0 00-2.26114 5.36531 22.012 22.012 0 00-.80479 3.94755 9.72637 9.72637 0 00-.642-.91016l-1.63845-2.19413c-.55555-.72817-1.17847-1.39881-1.76279-2.09821l-.8911-1.04443-.94852-.98689c-.65157-.64186-1.25507-1.32209-1.945-1.92582a59.07471 59.07471 0 00-18.09882-11.90931s2.58686-10.03145 21.366-20.71458c18.779-10.68289 41.11266-11.66019 50.50224 0C450.36548 274.92431 452.30089 288.84552 438.06319 317.982z" fill="#2e6cad" class="color000 svgShape"></path><path d="M473.35066,441.64578c-8.7476-11.33435-51.79578-90.64718-51.79578-90.64718-2.25155-2.8264-4.3403-5.77747-6.43851-8.72831-2.05038-2.97984-4.03363-5.998-5.98823-9.04479a211.79139,211.79139,0,0,1-10.71166-18.894c-.78572-1.64793-1.62887-3.2-2.45283-4.781-.39286-.79507-.91976-1.52348-1.37-2.28043-.48865-.74713-.91028-1.53285-1.45636-2.24184a64.92611,64.92611,0,0,0-6.80271-8.24925,63.76467,63.76467,0,0,0-8.10562-7.03265,61.20406,61.20406,0,0,0-9.12128-5.75828s.048-1.98337-12.6279-1.29355c-23.62716,1.29355-67.73884,11.33458-67.73884,11.33458-37.64429-.65169-48.79688,30.74578-48.79688,30.74578s-.97718,38.20018,41.75475,43.38374c43.16315,5.23127,63.36019-21.69187,65.79372-25.19873a33.80518,33.80518,0,0,0-4.9342-.364,37.41313,37.41313,0,0,0-5.17385.31626,37.17134,37.17134,0,0,1,5.16426-.71859,34.17019,34.17019,0,0,1,5.24087-.00959l-.048.40233c7.77042-.65145,14.56343,6.15126,14.56343,6.15126q3.23364,4.41187,6.132,9.02538,2.9319,4.59888,5.55712,9.38934a83.24353,83.24353,0,0,1,4.49351,9.99332,88.79034,88.79034,0,0,1,3.24791,10.43377c12.61854,26.87519,36.90663,43.70935,42.08059,47.26392,5.18332,3.56416,22.98519,19.43061,24.60435,35.61308.5366,5.31759,11.77527,7.1571,22.5253,5.76788,9.70572-1.255,19.009-5.145,19.67014-11.47821C491.90936,452.34809,476.62734,445.8904,473.35066,441.64578Zm-17.20772,25.35194a8.48949,8.48949,0,0,1-1.39893-1.35086,10.18709,10.18709,0,0,1-.99636-1.6767,9.45025,9.45025,0,0,1-.81449-3.74639,9.10708,9.10708,0,0,1,.67064-3.68883,16.79832,16.79832,0,0,0,1.25518,6.92715,9.11251,9.11251,0,0,0,1.91624,2.82663,16.48147,16.48147,0,0,0,2.8168,2.22266A7.89928,7.89928,0,0,1,456.14294,466.99772Z" fill="#2e6cad" class="color000 svgShape"></path><path d="M377.8467 426.99569l1.3925 1.937c.4663.61426.912 1.24138 1.38816 1.84746.94923 1.21425 1.92711 2.40535 2.92254 3.58311q2.97381 3.5424 6.06038 6.99522c4.10767 4.61117 8.20843 9.23239 12.2037 13.97642 1.00384 1.18221 1.94769 2.41775 2.89458 3.65329.45894.64443.927 1.22758 1.378 1.92161a5.82014 5.82014 0 01.95659 2.4416 3.88739 3.88739 0 01-.7608 2.63646 6.10365 6.10365 0 01-1.96875 1.64372 15.69 15.69 0 01-4.54637 1.54758 34.45792 34.45792 0 01-9.36116.389 28.09809 28.09809 0 01-9.077-2.16 11.68915 11.68915 0 01-3.80662-2.7478c-1.07986-1.11788-2.1147-2.26921-3.13832-3.428q-3.0582-3.48733-6.18529-6.9a106.64484 106.64484 0 00-13.36239-12.65409c-1.22-.94338-2.46441-1.69051-3.8044-2.53471-1.33518-.81893-2.61633-1.731-3.87328-2.67856a29.22617 29.22617 0 01-6.53991-6.88131 19.06695 19.06695 0 01-1.20162-2.098c-.371-.71788-.62046-1.49916-.92946-2.24933-.192-.79086-.43087-1.57611-.55824-2.38031l-.13228-1.21823a6.049 6.049 0 01-.06-1.2201 19.95169 19.95169 0 012.46056-9.27005.83851.83851 0 011.13086-.35789c.01824.00935.04058.02245.05789.033 6.12986 3.79527 12.26709 7.60785 18.51706 11.20757 3.11224 1.822 6.24412 3.61468 9.44817 5.25373a43.47465 43.47465 0 004.88894 2.23084 6.69539 6.69539 0 001.26572.33286 1.30427 1.30427 0 00.57169-.02549.28314.28314 0 00.16233-.15392l.17965-.30619zm.00292.16257l-1.16864 2.39061-.14491.28865a.667.667 0 01-.30654.31181 1.608 1.608 0 01-.76139.09637 7.07793 7.07793 0 01-1.37016-.27368 39.03248 39.03248 0 01-5.08473-1.98874c-3.29434-1.52162-6.50739-3.19318-9.70256-4.89467-3.18-1.72863-6.33032-3.508-9.46653-5.31081-3.13879-1.80067-6.25407-3.6327-9.344-5.52437l1.18852-.3249a19.04278 19.04278 0 00-2.21541 8.47777 5.01422 5.01422 0 00.05228 1.08911l.11427 1.08607c.11228.71812.32959 1.41916.494 2.12839.2807.676.484 1.38314.81519 2.04021a17.37953 17.37953 0 001.07379 1.93424 27.64909 27.64909 0 006.08787 6.57091c1.19788.92817 2.42324 1.82781 3.71188 2.6423.63613.39882 1.28992.84139 1.94617 1.28957.66713.42877 1.28092.91788 1.90044 1.39975a99.92479 99.92479 0 0113.11971 13.21947l6.02167 7.05253c1.00829 1.16888 2.02629 2.32816 3.08019 3.44487l.806.8166a9.26443 9.26443 0 00.87285.70806 11.28117 11.28117 0 001.97927 1.10057 26.12583 26.12583 0 008.907 1.93307 33.75906 33.75906 0 009.08468-.73052 14.59622 14.59622 0 004.13912-1.57612 3.40588 3.40588 0 002.0043-3.06335 4.49909 4.49909 0 00-.76233-1.81541c-.39555-.59695-.90057-1.2187-1.34524-1.82664-.93812-1.21262-1.91588-2.39693-2.87879-3.59808-3.87118-4.78988-7.98317-9.40829-11.9182-14.1811-1.96547-2.389-3.92416-4.78636-5.80905-7.24481-.93051-1.23881-1.84325-2.49143-2.72628-3.76556-.44174-.63648-.85846-1.29215-1.28512-1.93822C378.55 428.48409 378.249 427.85065 377.84962 427.15826zM473.31359 441.57093l2.09155 2.26406c.71215.70128 1.37577 1.44747 2.121 2.11249a56.395 56.395 0 004.57608 3.84813 83.28179 83.28179 0 009.99846 6.5405q5.2201 2.91785 10.69284 5.36016c3.63457 1.65682 7.36013 3.04581 11.11634 4.49 7.42715 3.0065 14.97546 6.00646 21.62239 10.73576a16.56626 16.56626 0 014.35339 4.34824 5.27148 5.27148 0 01.85063 3.07692 4.50023 4.50023 0 01-.43391 1.56816l-.727 1.346a29.903 29.903 0 01-3.63363 4.86216 38.934 38.934 0 01-4.48251 4.06567 32.00763 32.00763 0 01-10.66477 5.621 17.719 17.719 0 01-6.04846.73379 41.3645 41.3645 0 01-5.97851-1.0201c-7.84305-1.83717-15.48412-4.32041-23.1108-6.803l-11.41294-3.77679c-1.90161-.615-3.8072-1.23882-5.71022-1.76606-1.89471-.5366-3.84638-.93519-5.81372-1.40255a32.91347 32.91347 0 01-5.87243-1.86173 13.68268 13.68268 0 01-5.09748-3.756 8.7217 8.7217 0 01-.95145-1.28372l-.44385-.66455c-.13953-.22573-.23988-.47041-.36128-.70479-.22561-.47625-.48023-.94338-.67859-1.428l-.51286-1.48068a10.07368 10.07368 0 01-.41508-1.49916l-.348-1.51156c-.166-1.01379-.28771-2.03179-.43215-3.04744a.788.788 0 01.66923-.891.80377.80377 0 01.09672-.00795l.04936-.00047a88.56946 88.56946 0 0012.57655-.974 49.50632 49.50632 0 006.14038-1.33659 22.65661 22.65661 0 005.68414-2.4285 7.11654 7.11654 0 003.52755-4.57164 3.00559 3.00559 0 00.08-.73005 3.46834 3.46834 0 00.00012-.74057 13.27376 13.27376 0 00-.22971-1.53963l-.60853-3.214C474.82269 449.8024 474.13779 445.63965 473.31359 441.57093zm.06807.1476c.9201 4.253 1.9795 8.41181 2.954 12.43258l.69964 3.02733a13.79727 13.79727 0 01.28853 1.60418 4.19935 4.19935 0 01.02761.84888 3.75461 3.75461 0 01-.0669.85215 6.51475 6.51475 0 01-1.36314 3.11107 10.17423 10.17423 0 01-2.46512 2.26313 22.52128 22.52128 0 01-5.93816 2.71341 50.88832 50.88832 0 01-6.28494 1.49753 82.5695 82.5695 0 01-12.81363 1.20559l.81508-.8994c.14374.96747.26338 1.941.424 2.90312l.33333 1.41659a8.98389 8.98389 0 00.39134 1.39273l.47508 1.35881c.18245.44023.41473.85356.61788 1.28232.10948.20959.19895.43251.324.63134l.396.58221a7.2772 7.2772 0 00.83835 1.1235A11.97537 11.97537 0 00457.549 484.353a35.23449 35.23449 0 005.57349 1.76488c1.92687.48047 3.9017.90549 5.85933 1.48209 1.95378.56467 3.85246 1.21 5.75758 1.84886l11.37447 3.91667q5.67467 1.97962 11.37622 3.85913c3.80018 1.25121 7.61405 2.47178 11.4775 3.4692a40.68635 40.68635 0 005.83513 1.149 16.03965 16.03965 0 005.83536-.59929 25.94292 25.94292 0 005.50834-2.21331 32.93432 32.93432 0 005.00426-3.23738 38.40847 38.40847 0 004.36544-4.05842 29.06814 29.06814 0 003.4913-4.795l.66139-1.32068a3.7647 3.7647 0 00.32257-1.31881 4.49129 4.49129 0 00-.81777-2.58383 15.75476 15.75476 0 00-4.23865-3.95948 69.84909 69.84909 0 00-10.49226-5.61653c-3.6293-1.654-7.34083-3.138-11.06663-4.59853a140.29315 140.29315 0 01-21.83186-10.24594 82.59467 82.59467 0 01-9.91133-6.911 57.05129 57.05129 0 01-4.4438-4.09468c-.71906-.70432-1.35905-1.487-2.0388-2.22687C474.50784 443.32248 474.02644 442.54285 473.38166 441.71853z" fill="#2e6cad" class="color000 svgShape"></path><path d="M448.4455 470.86363h-.02619l.00187-.814h.00187c.31532 0 21.12439-.06644 26.72806-6.95383a5.76054 5.76054 0 001.2098-5.0956c-2.63481-12.58743-3.41141-16.27112-3.41141-16.27112l.79531-.16842s.7766 3.68556 3.41141 16.273a6.60988 6.60988 0 01-1.37542 5.77583C469.96849 470.75416 449.63379 470.86363 448.4455 470.86363zM281.05387 232.19343a15.52592 15.52592 0 012.61587 2.94546 16.75416 16.75416 0 011.88418 3.51246 16.30555 16.30555 0 011.03578 3.89913 18.84763 18.84763 0 01.12584 4.07667l-1.61155-.21777a17.44276 17.44276 0 00.27122-3.74615 15.281 15.281 0 00-.59087-3.74942 16.13381 16.13381 0 00-1.45986-3.56019A15.327 15.327 0 00281.05387 232.19343zM270.61366 199.4161a182.10677 182.10677 0 0118.01613-3.31785c3.03528-.37029 6.08155-.68841 9.14677-.822 1.52981-.10549 3.06826-.08818 4.60532-.11368 1.53939.06479 3.0816.058 4.62333.26409a18.83392 18.83392 0 012.31049.31906c.76034.16865 1.55437.26292 2.28851.49637 1.49612.39859 2.9568.90525 4.41082 1.429a58.71765 58.71765 0 018.364 3.96369 50.34814 50.34814 0 0114.24378 11.78 21.34219 21.34219 0 011.39776 1.87529l.66946.96093.59824 1.011.59707 1.01121.51859 1.05706.99507 2.07413a61.01005 61.01005 0 004.53994 7.80223c3.36194 5.04321 7.13721 9.82466 10.995 14.52121 1.94665 2.33072 3.932 4.64859 6.03969 6.80365.26374.26666.53648.50829.80432.76466.13824.1345.242.18059.35987.284a3.25227 3.25227 0 00.50877.29543 16.86584 16.86584 0 011.92219 1.36606 25.20888 25.20888 0 013.3444 3.22382 21.32474 21.32474 0 014.47421 8.04667l.16865.55321.10608.56959.21076 1.13706c.1131.76069.10994 1.53635.16713 2.30078-.04573.767-.11391 1.53261-.18116 2.29331l-.48935 2.23973a16.49323 16.49323 0 00-.3945-8.9683 20.70938 20.70938 0 00-4.65584-7.64036 25.22945 25.22945 0 00-3.31411-3.03435 16.09712 16.09712 0 00-1.83308-1.24 3.71717 3.71717 0 01-.48513-.2669 5.04455 5.04455 0 01-.55625-.39859c-.29041-.26315-.59462-.52139-.87368-.78993-2.21213-2.15412-4.25456-4.4266-6.27523-6.72833q-3.03312-3.44768-5.84367-7.08318-2.83557-3.61364-5.42788-7.424a62.45539 62.45539 0 01-4.71689-7.9648l-1.00081-2.04325-.49566-.993-.57485-.95367-.57367-.9539-.64654-.9104a21.51439 21.51439 0 00-1.34665-1.78243 48.81941 48.81941 0 00-13.7149-11.51634 57.28918 57.28918 0 00-8.12539-3.93141 36.43031 36.43031 0 00-8.65626-2.3195c-1.48009-.23625-2.99656-.266-4.5011-.36677-1.513-.011-3.02628-.06573-4.54333.0021-3.03376.05474-6.06694.3083-9.0959.58736C282.65618 197.44934 276.61966 198.34056 270.61366 199.4161z" fill="#2e6cad" class="color000 svgShape"></path><path d="M310.86328 225.23048c-.10011-.18713-10.19307-18.80676-27.45693-27.78909l.31064-.59882c17.4538 9.08151 27.64032 27.88079 27.74137 28.06979zM311.16047 216.65446a40.06294 40.06294 0 002.22758 5.98495 39.492 39.492 0 003.10276 5.54752l-.56759.36351a41.84356 41.84356 0 01-4.76275-11.896zM338.81238 284.592a20.17123 20.17123 0 01-5.39665-2.13634c-.84724-.44608-1.6939-1.02455-2.48488-1.4601a4.06029 4.06029 0 00-2.63435-.29239 6.50611 6.50611 0 00-1.29683.48116 10.47338 10.47338 0 01-1.42.49426 5.77081 5.77081 0 01-3.1.032 4.28446 4.28446 0 01-1.42746-.76373 1.61882 1.61882 0 01-.58771-.833 2.12015 2.12015 0 01.02374-.95017 7.7056 7.7056 0 011.50185-2.73516l.42128.91016a1.19313 1.19313 0 01-.65882-.22924 2.389 2.389 0 01-.37263-.31742 3.8294 3.8294 0 01-.52958-.70011 4.76178 4.76178 0 01-.60245-1.56021l-.137-.81332c-.024-.27649-.01685-.56467-.01474-.84584a6.67839 6.67839 0 01.34748-1.621 10.10362 10.10362 0 011.55238-2.78359 15.41282 15.41282 0 012.17131-2.27552l-.26818.59321a16.17465 16.17465 0 01.32748-2.8816c.16514-.913.35064-1.814.56256-2.71926l.17076-.68678a3.019 3.019 0 01.16433-.45683c.07286-.1338.14807-.27205.22643-.38643a7.90434 7.90434 0 01.98981-1.1525 24.05583 24.05583 0 012.15143-1.85307l.32175 1.40325c-1.4339-.32-2.729-.70665-4.07375-1.101l-1.98968-.60865a10.341 10.341 0 01-2.07985-.815 3.71686 3.71686 0 01-1.77074-1.88606 2.67363 2.67363 0 01.55883-2.74873 2.88249 2.88249 0 011.18092-.77707 2.99892 2.99892 0 01.69788-.15415l.52654-.04257q1.05051-.07965 2.10091-.11321a49.03417 49.03417 0 018.3938.4035 35.38014 35.38014 0 018.178 2.069l-.24432-.04538a6.01139 6.01139 0 012.12991.45309 2.74725 2.74725 0 011.66185 1.74734 3.21944 3.21944 0 01.02854 1.20256c-.05088.32935-.109.65754-.17871.981a11.25384 11.25384 0 00-.3338 1.753 2.39161 2.39161 0 00.76584 1.32232 4.9678 4.9678 0 011.18033 1.75179 5.12161 5.12161 0 01.15392 2.10757c-.06819.64584-.13766 1.27016-.15977 1.89144a2.98238 2.98238 0 00.25591 1.62384 1.01352 1.01352 0 00.11087.14011l.06807.07088.121.14152a1.91919 1.91919 0 01.265.53683 5.3292 5.3292 0 01.21029 1.01613 6.35668 6.35668 0 01-.08164 2.02406 1.74346 1.74346 0 01-.53169.99742c-.11567.08327-.14748.11157-.17754.12935a.34406.34406 0 00-.08187.1055.83552.83552 0 00-.05579.3642c.09193 1.18151.723 2.42032.81707 3.72978a6.97178 6.97178 0 01-.05193 1.949 1.64169 1.64169 0 01-1.17227 1.425 1.57409 1.57409 0 001.03648-1.44794 7.111 7.111 0 00-.08035-1.89377c-.15392-1.26759-.829-2.3595-1.02373-3.74124a1.3012 1.3012 0 01.07018-.58245.8634.8634 0 01.19192-.284c.09708-.08023.19252-.15017.20234-.16725a1.29618 1.29618 0 00.29134-.701 5.7605 5.7605 0 00-.02678-1.814 4.64469 4.64469 0 00-.22386-.8587c-.11006-.313-.18432-.29848-.513-.6821a3.509 3.509 0 01-.47754-2.09588c-.02246-1.32887.31157-2.65376-.06491-3.66077a4.06343 4.06343 0 00-1.02478-1.37074 7.065 7.065 0 01-.67029-.803 2.33658 2.33658 0 01-.42935-1.15834 10.487 10.487 0 01.29064-2.04185c.05579-.30666.09965-.61332.137-.92069a2.00681 2.00681 0 00-.02667-.71157c-.20386-.78268-1.51939-1.16489-2.6023-1.1691l-.12374-.00047-.12094-.04515a34.48626 34.48626 0 00-7.88258-1.84582 52.42066 52.42066 0 00-8.14188-.31111q-1.01928.0393-2.03471.12094l-.50549.04374a1.40893 1.40893 0 00-.3097.072 1.27894 1.27894 0 00-.52888.35227 1.04036 1.04036 0 00-.22561 1.102 2.22375 2.22375 0 001.04525 1.03274 8.78474 8.78474 0 001.769.69286l1.96816.614c1.30185.39181 2.6554.79648 3.91573 1.08537l1.66185.381-1.3401 1.02245a22.58606 22.58606 0 00-2.00266 1.705 7.2065 7.2065 0 00-.80432.90829c-.05192.07252-.08374.13685-.12467.2a1.34729 1.34729 0 00-.067.186l-.16982.63836c-.21859.86759-.41578 1.75062-.58982 2.63014a15.84483 15.84483 0 00-.34912 2.54125l-.00315.375-.26515.21847a14.138 14.138 0 00-1.978 2.0105 9.3409 9.3409 0 00-1.42021 2.3712 4.32869 4.32869 0 00-.24059 2.59107 3.6071 3.6071 0 00.42351 1.22759 2.72848 2.72848 0 00.35134.50221 1.31525 1.31525 0 00.18725.17474c.05111.04865.11906.04912.02549.04421l.4214.91016a6.84077 6.84077 0 00-1.3615 2.25775 1.197 1.197 0 00-.04573.484.60057.60057 0 00.24315.31976 3.33587 3.33587 0 001.09274.632 4.91585 4.91585 0 002.626.04 11.59965 11.59965 0 001.33636-.39532 7.17571 7.17571 0 011.4436-.44444 4.6638 4.6638 0 013.00207.49122c.87332.54362 1.59413 1.10572 2.43318 1.60653A21.95345 21.95345 0 00338.81238 284.592z" fill="#2e6cad" class="color000 svgShape"></path><polygon points="337.625 257.282 329.145 257.427 329.16 256.753 337.625 257.282" fill="#2e6cad" class="color000 svgShape"></polygon><path d="M324.17129 267.20769a6.60323 6.60323 0 013.43843-1.77541c1.32256-.04328 2.51646.11812 3.7741.16958 1.24291.07275 2.486.134 3.73.146.62175.00351 1.24408-.00187 1.86384-.04585a5.08934 5.08934 0 001.81716-.3607 5.12863 5.12863 0 01-1.80933.44467c-.621.07228-1.24524.106-1.86921.1303-1.24829.04444-2.49716.03929-3.74475.02269-1.23179.00233-2.53072-.09614-3.69527-.00515a6.05792 6.05792 0 00-3.02674 1.74945zM322.2167 276.63961a40.35251 40.35251 0 013.43913-2.70546 10.11248 10.11248 0 011.93857-1.10034 6.00057 6.00057 0 012.24044-.16935c1.453.07134 2.88768.22081 4.32836.31508.71952.04328 1.44.08632 2.16044.08281a4.9834 4.9834 0 002.1126-.33286 5.02214 5.02214 0 01-2.10979.43438c-.724.03766-1.44829.0283-2.172.01871-1.44606-.02667-2.89294-.10854-4.32871-.11181a5.66868 5.66868 0 00-2.04325.23508 9.68656 9.68656 0 00-1.77 1.123 39.75472 39.75472 0 00-3.2437 2.80768zM344.6344 264.47743a39.05548 39.05548 0 003.82019-3.00721 18.23949 18.23949 0 001.69179-1.71436 7.98668 7.98668 0 00.70689-.938 10.60235 10.60235 0 01.73788-1.05776 14.25778 14.25778 0 013.94708-3.15926 12.30868 12.30868 0 014.66684-1.68886 12.117 12.117 0 00-4.45175 2.03412 13.68065 13.68065 0 00-3.51118 3.30124 9.42866 9.42866 0 00-.59766 1.0297 8.93157 8.93157 0 01-.6966 1.10384 19.34963 19.34963 0 01-1.63763 1.95857 40.35325 40.35325 0 01-3.70837 3.4451z" fill="#2e6cad" class="color000 svgShape"></path><path d="M336.37849 239.359H313.28781a2.43275 2.43275 0 00-2.04067 1.10174l-7.92364 12.08194a8.83181 8.83181 0 01-3.066 5.39431 18.02091 18.02091 0 00-2.14617 2.10781l-1.06349 1.52348c-.81449 1.552-.21076 2.19389-.21076 2.19389 4.60848 8.73813 26.21391-7.29113 27.67986-3.16183 1.06361 3.0278-6.50553 7.50212-10.60629 9.66748a6.47568 6.47568 0 00-3.19048 3.89959.40483.40483 0 01-.03836.09591l10.18477.34479a5.281 5.281 0 01-.15333-1.00607c-.24912-3.53539 3.8996-6.85043 3.8996-6.85043a33.42046 33.42046 0 011.12092-6.15127c.31625-1.13051 3.229-3.32463 3.229-3.32463s-1.61928-.316-6.46728-1.85869c-2.03132-.63227-2.7595-1.53284-2.9223-2.35692a1.99415 1.99415 0 011.8395-2.29962 50.25157 50.25157 0 0113.02088.5366l4.139-8.42187A2.44284 2.44284 0 00336.37849 239.359zm-14.20893 8.51778a1.438 1.438 0 010-2.87435A1.438 1.438 0 01322.16956 247.87673zM269.12257 225.24171c-7.82586 0-18.847-3.45258-24.1157-10.07705-7.271-9.1414-22.98167-12.38159-23.1398-12.4134l-.6952-.13942.54737-.451c.0552-.04585 5.59243-4.68017 5.82541-10.28571.11883-2.84909 1.81144-4.45561 3.77165-6.3157 2.19693-2.08559 4.68765-4.44907 5.70378-9.278.37614-1.7843.66806-4.087.97683-6.52435 1.33144-10.50372 3.155-24.88949 14.3315-27.48314 13.99279-3.24767 23.48132-.73917 29.00732 7.66961 3.69118 5.61676 6.14729 13.684 7.94095 19.574a45.53635 45.53635 0 002.269 6.54775c.93286 1.67857 2.457 4.02053 3.93071 6.28482 1.4222 2.18664 2.76675 4.25164 3.59574 5.73279 1.72536 3.08113 1.62524 7.45627 1.61963 7.64153l-.00936.3331-.33309-.00562c-.09544.00562-9.22561-.10292-28.60312 3.47037l-.53614.09918.4959-1.7132a4.05086 4.05086 0 014.01586-2.96042c3.796.12257 8.54818-1.1125 9.612-7.72481 1.64021-10.19121 1.37168-14.07981.25169-18.06478-.19462-.69333-.363-1.68887-.55765-2.84254-.93286-5.52039-2.486-14.71793-10.44477-16.52656-.92069 2.21752-7.2364 16.6351-17.21614 19.96137l-.09544.03181-.09824-.0262c-.03088-.00748-3.08394-.79624-4.53983.64186-.843.82993-1.01425 2.27459-.509 4.29281 1.88816 7.5592 3.97 8.30492 5.58214 8.1234l.15626-.01871.11415.10853c.5249.494 12.85128 12.1851 12.97386 18.32677a20.29786 20.29786 0 01-.9918 6.45418c-.55111 1.92278-.9497 3.3113-.02433 4.916a13.456 13.456 0 003.5265 3.12323c2.2381 1.61869 4.552 3.29165 4.58661 5.1873a3.26942 3.26942 0 01-1.52045 2.56464C275.01067 224.65973 272.33562 225.24171 269.12257 225.24171zm-46.47142-23.00506c3.08394.727 16.317 4.25163 22.88343 12.50883 7.24107 9.1021 25.54632 12.12615 30.57737 8.19919a2.62146 2.62146 0 001.2622-2.021c-.029-1.55881-2.20441-3.13165-4.30778-4.653a13.70154 13.70154 0 01-3.7155-3.33282c-1.06853-1.85167-.61473-3.43481-.04024-5.439a19.7491 19.7491 0 00.96654-6.25489c-.11134-5.56437-11.40569-16.549-12.652-17.74385-2.75926.2152-4.59128-2.38687-6.15571-8.64643-.56607-2.26711-.334-3.9279.69146-4.93748 1.585-1.56162 4.49491-.97683 5.08531-.83648 10.23986-3.49656 16.753-19.64137 16.81755-19.80417l.10385-.262.277.05614c8.64924 1.75062 10.34 11.7575 11.2485 17.1338.19088 1.134.35649 2.11366.54175 2.77143 1.14712 4.08041 1.425 8.04012-.23485 18.35483-1.20233 7.47218-6.98564 8.41533-10.30068 8.29182a3.4386 3.4386 0 00-3.34592 2.47389l-.19275.66525c17.02808-3.112 26.046-3.36463 27.8574-3.38241a16.18651 16.18651 0 00-1.53354-6.966c-.81871-1.4615-2.1567-3.51714-3.57422-5.69442-1.47928-2.27459-3.00909-4.62591-3.9541-6.32506A45.11048 45.11048 0 01288.632 169.714c-1.78243-5.85068-4.22263-13.86461-7.85954-19.4-5.35385-8.14679-14.61407-10.55986-28.29155-7.38329-10.71892 2.48792-12.50883 16.60421-13.815 26.91051-.31064 2.45143-.60444 4.76718-.98525 6.57862-1.06011 5.03479-3.6313 7.475-5.90027 9.62888-1.93027 1.832-3.45446 3.27855-3.56206 5.85442C228.01342 196.84163 224.0771 200.91643 222.65115 202.23665z" fill="#2e6cad" class="color000 svgShape"></path><path d="M260.8118,186.24107a5.06245,5.06245,0,0,1-2.94136,2.654,4.67681,4.67681,0,0,1-6.17992-4.465,5.08738,5.08738,0,0,1,2.08875-4.024c1.27425,2.38569,2.62522,2.90311,3.96661,2.74031C257.74588,183.14638,259.03931,184.37279,260.8118,186.24107Z" fill="#2e6cad" class="color000 svgShape"></path><path d="M300.35325,195.71673s-9.02537-.15321-28.66674,3.47809l.39274-1.36045a3.57191,3.57191,0,0,1,3.58334-2.54874c3.39177.11508,8.853-.843,10.00279-8.00972,1.70536-10.55845,1.34139-14.324.24912-18.214-1.10185-3.88018-1.34138-17.60046-11.53575-19.66031,0,0-6.55348,16.50831-17.12152,20.02452,0,0-7.28165-1.93541-5.46121,5.34636a24.79659,24.79659,0,0,0,1.98325,5.63361,4.8014,4.8014,0,0,0-2.836,3.98567,5.17532,5.17532,0,0,0,7.20493,5.20274,4.85309,4.85309,0,0,0,2.77868-3.23832c3.78451,3.99527,9.60034,10.78816,9.68642,14.87933.12467,6.07454-2.788,8.37392-.96771,11.53575,1.82056,3.15224,11.65084,6.55359,6.67816,10.44337-4.98228,3.88041-23.61758,1.09238-31.05256-8.25884s-23.33969-12.53223-23.33969-12.53223,5.71045-4.70426,5.95-10.52968c.23953-5.83477,7.53066-6.31383,9.46607-15.5406,1.945-9.22655,1.45636-30.59257,15.052-33.7544,13.60531-3.15224,23.0715-.96771,28.65739,7.53089,5.58565,8.49837,8.37392,22.82215,10.19424,26.09906,1.82045,3.27668,5.82542,8.987,7.5309,12.01458C300.47781,191.28077,300.35325,195.71673,300.35325,195.71673Z" fill="#2e6cad" class="color000 svgShape"></path><path d="M265.02941 168.217a12.79765 12.79765 0 012.9044-1.10408 18.51416 18.51416 0 013.06639-.5359 16.39 16.39 0 016.16892.54736c-1.04.03883-2.05435.02106-3.06919.07018-1.01286.03462-2.02138.0952-3.0264.19181C269.05859 167.55922 267.0654 167.85887 265.02941 168.217zM285.31743 166.00883a3.52243 3.52243 0 00-2.0374.67274 2.65936 2.65936 0 00-.97951 1.74782 6.61138 6.61138 0 00.05239 2.11061 5.96037 5.96037 0 00.64853 1.988 6.89155 6.89155 0 001.344 1.6463 2.70968 2.70968 0 01.70888 1.073 1.90755 1.90755 0 01-.139 1.30618 4.30473 4.30473 0 01-1.43085 1.87436 2.98327 2.98327 0 01-2.18781.59344 3.03607 3.03607 0 001.93623-.90244 3.83809 3.83809 0 001.09238-1.77285 1.42541 1.42541 0 00.04842-.88817 2.06234 2.06234 0 00-.57344-.73964 7.35557 7.35557 0 01-1.51027-1.79764 6.49538 6.49538 0 01-.69683-2.27014 6.213 6.213 0 01.09953-2.35552 3.142 3.142 0 011.36758-1.94314A3.39043 3.39043 0 01285.31743 166.00883zM277.16912 175.50064a5.49856 5.49856 0 00.23871 1.7981 1.60574 1.60574 0 00.44409.62572c.20608.20468.47859.37193.774.61122a1.67848 1.67848 0 01-1.106-.07041 1.551 1.551 0 01-.862-.85308 1.84687 1.84687 0 01-.0614-1.1759A1.81485 1.81485 0 01277.16912 175.50064zM273.40583 172.14207a1.01226 1.01226 0 000-2.0233 1.01226 1.01226 0 000 2.0233z" fill="#2e6cad" class="color000 svgShape"></path><path d="M284.453 171.53508a1.01225 1.01225 0 000-2.02329 1.01225 1.01225 0 000 2.02329zM276.31943 183.06778c.716.28257 1.41238.545 2.11038.77122a10.14389 10.14389 0 002.09915.47321 5.3691 5.3691 0 002.05869-.1469 5.83014 5.83014 0 001.86535-1.09753 3.62084 3.62084 0 01-1.62781 1.68606 4.50708 4.50708 0 01-2.38465.36608 6.53476 6.53476 0 01-2.25143-.6966A6.73912 6.73912 0 01276.31943 183.06778zM256.22836 179.7497a3.29359 3.29359 0 012.24336.29029 5.22094 5.22094 0 012.7892 3.54662 3.43845 3.43845 0 01-.21579 2.25213 6.35961 6.35961 0 00-.49859-2.03155 7.98917 7.98917 0 00-2.45435-3.12651A5.72474 5.72474 0 00256.22836 179.7497zM287.30618 184.286a5.304 5.304 0 01-1.19952-.14222l-.29847-.07017.04117-.30409a50.66561 50.66561 0 00.60069-9.60642l-.01871-.32187.32093-.03275a5.29839 5.29839 0 014.57537 1.84606l.04679.072c.058.12444.116.23765.17216.34058.204.36678.43976.77.69426 1.193a5.17289 5.17289 0 01.31906 1.77214A5.25982 5.25982 0 01287.30618 184.286zm-.74666-.73823a4.56641 4.56641 0 005.07315-6.0032c-.2283-.36677-.46783-.77753-.67648-1.15179-.05614-.10293-.11415-.21521-.17216-.33591a4.50107 4.50107 0 00-3.64253-1.6A52.07035 52.07035 0 01286.55952 183.54778zM191.60748 304.87431c6.74623 15.61733 15.50353 30.38462 26.90888 42.93158a100.70688 100.70688 0 0018.97038 16.854A91.56169 91.56169 0 00260.264 375.867c16.13148 5.31618 33.31768 6.7 50.17 5.22917a181.40377 181.40377 0 0025.12177-3.84206c4.16754-.82455 8.26-1.96722 12.37667-3.03294 2.06781-.502 4.08521-1.17542 6.12834-1.76933l6.11781-1.83506a.08135.08135 0 01.10351.05006.0848.0848 0 01-.04936.10315l-6.01348 2.16886c-2.01167.70479-3.99574 1.50454-6.053 2.07108-4.08965 1.20981-8.148 2.5595-12.32194 3.48253a161.7689 161.7689 0 01-25.26492 4.3321 125.16813 125.16813 0 01-25.659-.27648A104.50968 104.50968 0 01259.969 376.707a112.49023 112.49023 0 01-22.7956-11.57926c-1.81845-1.124-3.50978-2.42944-5.24344-3.67785-.882-.60513-1.72-1.26711-2.55072-1.93938l-2.50909-1.99811c-1.61577-1.39787-3.243-2.7913-4.80192-4.25655-1.527-1.49775-3.11493-2.94124-4.54357-4.538-.72186-.79063-1.46454-1.56325-2.16932-2.36909l-2.081-2.44721c-1.39495-1.62525-2.68546-3.33727-3.96848-5.05023-2.52079-3.46264-4.86415-7.04762-7.06423-10.71564-2.1829-3.67972-4.12252-7.49534-5.94963-11.35353-.91964-1.92676-1.77436-3.88392-2.5285-5.88249l-2.30757-5.96647a.08147.08147 0 01.04654-.10526A.08418.08418 0 01191.60748 304.87431zM294.99847 182.16394a48.4993 48.4993 0 019.26958-1.71086 28.04652 28.04652 0 014.73631.01825c1.5801.12163 3.14581.32631 4.71011.48888l.0062.0007a.22131.22131 0 01.13626.06643c1.65892 1.72232 3.25387 3.46616 4.78227 5.30028a66.3763 66.3763 0 014.08977 5.83829 57.979 57.979 0 015.85524 12.94228.08218.08218 0 01-.054.10268.0845.0845 0 01-.094-.03532q-.96806-1.5-1.84149-3.032c-.62163-1.003-1.20688-2.0215-1.80173-3.03224l-3.5451-6.0584c-1.13671-2.043-2.37517-4.02357-3.61094-6.01068a31.96908 31.96908 0 00-4.11983-5.66238l.1421.06714a22.58249 22.58249 0 00-4.64964.03111c-1.54688.13731-3.08253.33871-4.62894.43321-3.09435.19508-6.1991.46268-9.36.41356a.08214.08214 0 01-.02211-.16093zM178.53807 253.00227l-.00047-.00819.008.03532a127.86687 127.86687 0 01-6.40927-14.0232 111.81911 111.81911 0 01-4.66672-14.72143 83.5377 83.5377 0 01-2.08208-15.3095 40.20033 40.20033 0 01.3573-7.72668 18.91554 18.91554 0 012.60558-7.34984.41691.41691 0 01.20035-.16164 49.98015 49.98015 0 017.42914-2.0795c2.498-.546 5.01467-.97262 7.53791-1.34384 5.04589-.74081 10.11284-1.31086 15.19231-1.6739 2.54078-.16234 5.08133-.31695 7.62422-.41777 2.54394-.0676 5.08613-.16491 7.629-.208 2.54324-.03041 5.087-.03158 7.62925-.01731q3.81434.05544 7.62633.18339a.08123.08123 0 01.0786.084.083.083 0 01-.07661.0786q-3.80556.27472-7.60809.47414l-7.6.465c-5.06484.30081-10.12126.68139-15.171 1.0849-5.04882.41-10.09425.84443-15.11441 1.46711-1.25332.16444-2.50933.31859-3.7568.51344q-1.87892.25755-3.74287.58619a59.15535 59.15535 0 00-7.331 1.64232l.20011-.1614a17.20319 17.20319 0 00-2.80054 6.92879 31.87275 31.87275 0 00-.38491 7.60762 50.7222 50.7222 0 001.04069 7.5744c.51718 2.498 1.1201 4.97607 1.82465 7.4275q2.02927 7.37323 4.5452 14.618c1.65869 4.835 3.47516 9.62139 5.37116 14.38764l.004.01006a.06069.06069 0 01.0041.02549l-.00047.00819a.08143.08143 0 01-.16257 0z" fill="#2e6cad" class="color000 svgShape"></path><polygon points="369.212 282.811 369.212 282.804 369.886 282.804 369.212 282.811" fill="#2e6cad" class="color000 svgShape"></polygon><path d="M198.097 305.07852a84.3305 84.3305 0 012.36991 14.65851c.19673 2.47716.261 4.96648.26866 7.46516-.02422 2.498-.18433 5.00181-.44164 7.50891a54.27147 54.27147 0 01-1.33366 7.48832 36.3755 36.3755 0 01-2.5919 7.29908 24.25657 24.25657 0 01-4.56122 6.49722 20.26557 20.26557 0 01-3.1313 2.55154c-.57684.404-1.06689.67859-1.59109 1.004l-1.5546.94759c-1.03554.63367-2.03272 1.31015-3.05481 1.96535-.98479.68982-1.98945 1.37215-2.9285 2.1167a27.03368 27.03368 0 00-5.119 4.945 14.75176 14.75176 0 00-1.76547 3.00838 13.80791 13.80791 0 00-.87437 3.3796 60.619 60.619 0 00-.29018 7.25791c-.25543 9.80478.02574 19.64816-.29847 29.47212l-3.82638-1.50127c4.15737-5.318 8.3945-10.53179 12.71842-15.69733q6.498-7.73078 13.52531-15.01406 3.52137-3.63153 7.14751-7.17c2.45552-2.32208 4.90449-4.65351 7.471-6.86634 2.553-2.22687 5.19139-4.37024 7.95743-6.36366a50.05737 50.05737 0 014.31223-2.77914 15.01243 15.01243 0 014.821-1.89261.24375.24375 0 01.13392.46385l-.0283.01264-1.10876.49286-1.04314.64583c-.6814.44889-1.344.94011-1.98372 1.45636-1.27811 1.04419-2.52055 2.134-3.70989 3.29492-2.40886 2.28044-4.70964 4.6886-6.9923 7.11406-4.53386 4.88648-8.97357 9.874-13.36555 14.91-4.39468 5.03385-8.78842 10.07285-13.24228 15.06623-4.45467 4.988-8.89882 10.013-13.26988 15.05968l-.058.0669a2.14954 2.14954 0 01-3.76848-1.5684c.73285-9.755 2.0712-19.49 2.87282-29.2644.09544-1.22127.15029-2.43622.216-3.67106a33.42589 33.42589 0 01.33415-3.74334 15.90886 15.90886 0 012.80534-7.10049 34.96645 34.96645 0 014.98765-5.68437c.89777-.87765 1.8491-1.67763 2.77225-2.52464.95379-.79461 1.89424-1.621 2.866-2.39365l1.46021-1.15624c.4759-.38269 1.0111-.78175 1.39437-1.14034a17.06422 17.06422 0 002.33868-2.338 24.49688 24.49688 0 003.5051-5.73115 51.677 51.677 0 003.82521-13.462c.394-2.35061.67122-4.73373.87274-7.13253.23017-2.3981.34491-4.8128.44327-7.23616.178-4.84742.17321-9.73344.03181-14.641l-.00012-.00749a.245.245 0 01.482-.069zM220.61586 302.88019a43.34528 43.34528 0 0116.84831 4.36274 52.04783 52.04783 0 0114.40635 10.16922 58.586 58.586 0 0110.44571 14.29361c.33754.65707.70864 1.29893 1.01764 1.96956l.90561 2.02009c.63507 1.33449 1.10969 2.73 1.66149 4.09562.51871 1.37776.90748 2.79762 1.36525 4.19246.39169 1.41354.76689 2.8306 1.11507 4.2528l.0214.08725a1.07159 1.07159 0 01.02187.12421c.91672 8.26352 1.405 16.53194 1.9898 24.79592.26281 4.13328.595 8.2586.81239 12.39656.27543 4.134.47368 8.2738.48537 12.44638l.00351 1.56512-.0614 1.57378-.1152 3.10569c-.04843 1.01473-.0869 2.03109-.06012 3.05493.00784 1.02127.00713 2.03974.06082 3.06405.13684 4.0886.47824 8.18024.91285 12.263.8697 8.15592 1.888 16.34177 3.14253 24.421l-4.32708-.84022c2.14886-3.67785 4.43082-7.0509 6.817-10.4415 2.37833-3.37212 4.85338-6.672 7.46621-9.85554 2.554-3.23223 5.2459-6.35032 8.02785-9.38162 1.398-1.509 2.75212-3.05844 4.18555-4.53281 1.4194-1.4877 2.87189-2.94358 4.31035-4.41117 1.4539-1.45261 2.95412-2.85844 4.428-4.28883l2.22676-2.12862 2.29575-2.055 4.59246-4.10123 4.74215-3.92579 2.37038-1.95857c.79005-.65216 1.62477-1.25215 2.43447-1.88044 1.63542-1.23741 3.25048-2.497 4.89888-3.71293 1.62244-1.24771 3.34885-2.36348 5.01689-3.54779 1.67448-1.17659 3.3699-2.32278 5.06754-3.461a.24432.24432 0 01.303.38128l-.00783.00725c-2.98955 2.79763-6.11454 5.40695-9.08257 8.19826-2.95552 2.80487-5.99571 5.4977-8.87812 8.36316-5.89256 5.58822-11.49014 11.45949-17.02808 17.35882-1.355 1.50361-2.69575 3.01868-4.06988 4.50217-1.37414 1.48372-2.66687 3.03949-4.004 4.55479-1.34209 1.51179-2.62616 3.07177-3.90954 4.63151l-1.96173 2.30851-1.90781 2.35131-1.90629 2.35248-1.85178 2.39272c-1.26268 1.575-2.476 3.18335-3.68791 4.79409-2.38768 3.22007-4.76812 6.54821-6.85476 9.842l-.07368.11625a2.31522 2.31522 0 01-4.25363-.95647c-1.01811-8.28574-1.76208-16.53943-1.99436-24.86961-.114-4.15971-.12315-8.32784.05626-12.50111.02561-1.04139.10585-2.087.17789-3.13q.09-1.56313.266-3.13118l.30386-3.07645.13719-1.51764.05591-1.53238a118.17179 118.17179 0 00-.21731-12.31983c-.13544-2.05471-.32-4.10731-.50163-6.15992-.19333-2.05167-.45742-4.09749-.70455-6.144-1.05742-8.17673-2.56511-16.3144-4.00509-24.40434l.04327.211c-.45309-1.32724-.842-2.67108-1.28209-3.99714-.48911-1.30735-.94092-2.629-1.45647-3.92112a77.4187 77.4187 0 00-3.40218-7.60013 61.70921 61.70921 0 00-9.34724-13.65081l-1.42407-1.50922-1.49214-1.44255c-1.00666-.94852-2.02887-1.89027-3.11645-2.75177a58.1094 58.1094 0 00-6.84494-4.77538A52.411 52.411 0 00220.58 303.36673l-.0214-.00444a.24364.24364 0 01.05731-.4821z" fill="#2e6cad" class="color000 svgShape"></path><ellipse cx="170.137" cy="412.683" rx="10.885" ry="3.249" fill="#2e6cad" class="color000 svgShape"></ellipse><ellipse cx="275.449" cy="448.983" rx="12.767" ry="4.761" fill="#2e6cad" class="color000 svgShape"></ellipse><path fill="none" d="M347.74168,342.58636s-.08623.13414-.24911.37366"></path><path d="M176.3519 234.8107c-7.96434-15.64891-6.12576-37.47972-6.10611-37.69866l.6718.05988c-.01965.21707-1.83951 21.85888 6.035 37.33376zM203.43294 313.25221c1.8243 3.36229 3.838 6.61675 5.91453 9.82045 2.068 3.211 4.29375 6.31407 6.57325 9.36923a140.98752 140.98752 0 0015.0964 17.11649 107.68936 107.68936 0 008.62912 7.47335 74.1967 74.1967 0 009.58619 6.21606 60.78258 60.78258 0 0010.54079 4.39923c.89753.3221 1.83752.50175 2.75376.75953a28.07288 28.07288 0 002.78652.61753l2.81072.48888c.94232.12211 1.89143.19392 2.8354.29357l1.41717.1359 1.42372.03275 2.84394.055 5.73712-.12795c1.91249-.02784 3.82416-.083 5.73524-.15462l5.73326-.17988c7.64235-.28655 15.27336-.76022 22.89126-1.34735 7.61674-.59274 15.22588-1.324 22.784-2.42453 3.7817-.534 7.54937-1.16 11.29306-1.91483a92.72111 92.72111 0 0011.09833-2.83481.08143.08143 0 01.10386.04959.08265.08265 0 01-.04655.10245 114.113 114.113 0 01-22.24777 5.85326c-7.56867 1.309-15.196 2.2547-22.84448 2.8975-7.64984.63414-15.31851.97285-22.986 1.14782-3.83387.06667-7.66832.13661-11.502.09544l-5.75022-.05216L273.748 370.974l-1.44524-.08913-1.43577-.193a60.31831 60.31831 0 01-11.2657-2.49938l-2.72534-.94642c-.90993-.31087-1.77869-.72888-2.66967-1.08817-1.79-.70362-3.49808-1.58922-5.23572-2.41166-1.68115-.93028-3.39142-1.81425-5.00987-2.854-1.67086-.95741-3.24557-2.06289-4.84918-3.13a100.36391 100.36391 0 01-9.01543-7.22072 110.45317 110.45317 0 01-8.04422-8.29089c-2.50932-2.92183-4.88133-5.95547-7.13674-9.07028a120.12248 120.12248 0 01-11.6292-19.85844.08133.08133 0 01.04058-.10761A.08418.08418 0 01203.43294 313.25221z" fill="#2e6cad" class="color000 svgShape"></path><path fill="#b21919" d="M279.961,165.89453a1.22042,1.22042,0,0,0,0-2.43937,1.22042,1.22042,0,0,0,0,2.43937Z" class="colorb21919 svgShape"></path><path d="M470.15562,226.14556h-97.2085a6.29126,6.29126,0,0,1-6.28389-6.28389V53.696a6.29047,6.29047,0,0,1,6.28389-6.283h97.2085a6.29047,6.29047,0,0,1,6.28389,6.283V219.86167A6.29126,6.29126,0,0,1,470.15562,226.14556ZM372.94712,52.79868a.89887.89887,0,0,0-.89824.8973V219.86167a.89967.89967,0,0,0,.89824.89823h97.2085a.89967.89967,0,0,0,.89823-.89823V53.696a.89886.89886,0,0,0-.89823-.8973Z" fill="#2e6cad" class="color000 svgShape"></path><path d="M442.23459 55.04333H400.86814a2.24465 2.24465 0 110-4.4893h41.36645a2.24465 2.24465 0 010 4.4893zM459.33658 172.34044H383.76615V78.70616h75.57043zm-72.8776-2.69282h70.18478V81.399H386.459z" fill="#2e6cad" class="color000 svgShape"></path><path fill="#b21919" d="M420.48347,63.37888a4.37215,4.37215,0,0,1,1.08589,1.309,4.37207,4.37207,0,0,1,1.1226-1.27766,3.21347,3.21347,0,0,1,2.01761-.5659,3.503,3.503,0,0,1,2.371.9514,3.03982,3.03982,0,0,1,.9682,2.2499,7.44964,7.44964,0,0,1-2.07095,4.46583,44.85878,44.85878,0,0,1-4.36914,4.29056l-.18517.16664-.18038-.17183a44.84949,44.84949,0,0,1-4.24562-4.41281,7.44945,7.44945,0,0,1-1.94342-4.5228,3.03989,3.03989,0,0,1,1.03164-2.22151,3.50307,3.50307,0,0,1,2.397-.88372,3.21342,3.21342,0,0,1,2.00078.6229Z" class="colorb21919 svgShape"></path><rect width="104.391" height="3.591" x="369.356" y="182.319" fill="#2e6cad" class="color000 svgShape"></rect><rect width="104.391" height="3.591" x="369.356" y="191.85" fill="#2e6cad" class="color000 svgShape"></rect><circle cx="390.634" cy="208.066" r="5.817" fill="#2e6cad" class="color000 svgShape"></circle><circle cx="411.246" cy="208.066" r="5.817" fill="#2e6cad" class="color000 svgShape"></circle><circle cx="431.857" cy="208.066" r="5.817" fill="#2e6cad" class="color000 svgShape"></circle><circle cx="452.468" cy="208.066" r="5.817" fill="#2e6cad" class="color000 svgShape"></circle><g clip-path="url(#a)" fill="#2e6cad" class="color000 svgShape"><path fill="#767fad" d="M384.335,177.81335a16.29106,16.29106,0,0,0,3.95749-4.87736,43.19,43.19,0,0,0,2.64289-5.74308c1.51706-3.94918,2.61646-8.035,3.82825-12.12264.16047-.51134.3076-1.02244.496-1.53238a6.96156,6.96156,0,0,1,.29274-.76888l.40456-.78221a9.45533,9.45533,0,0,1,2.33833-2.40838,26.99921,26.99921,0,0,1,5.69992-3.10663c1.98091-.83391,4.01164-1.52138,6.031-2.18593l1.491-.50409a1.99454,1.99454,0,0,0,1.05776-.63625,4.77707,4.77707,0,0,0,.77613-2.62991l.00128-.03111a.58062.58062,0,0,1,.44725-.54128l2.56394-.59952,1.28174-.29964.32035-.07486c.10912-.02643-.04024.00164-.05813.03135-.03907.02666-.04936.04865-.0462.04023a1.16859,1.16859,0,0,0,.09941-.38526,12.61794,12.61794,0,0,0-.04269-2.48113c-.07193-.85145-.1766-1.71437-.30455-2.5581l.50747.43462a14.85811,14.85811,0,0,1-4.86823-.90268,6.3525,6.3525,0,0,1-3.652-3.38873,10.072,10.072,0,0,1-.5504-4.90122c.13146-1.61869.54794-3.20323.62724-4.74169a19.17988,19.17988,0,0,1,.77964-4.791,35.82024,35.82024,0,0,0,1.00385-4.66473,27.55782,27.55782,0,0,1,2.86545-9.1973l.2062.34011a9.19326,9.19326,0,0,1-3.67492-.62058,2.93148,2.93148,0,0,1-1.45074-1.31156,2.67338,2.67338,0,0,1-.11965-1.99062.256.256,0,0,1,.263-.1766l.01275.00117a4.23761,4.23761,0,0,0,3.276-1.80068,24.47955,24.47955,0,0,1,2.93294-2.98195,10.80333,10.80333,0,0,1,3.84743-1.80956,22.72732,22.72732,0,0,1,4.14135-.7476,17.3205,17.3205,0,0,1,8.36269,1.08958,14.38314,14.38314,0,0,1,3.59551,2.35506,7.92915,7.92915,0,0,1,1.44629,1.69775,4.22011,4.22011,0,0,1,.48526,1.091,2.95288,2.95288,0,0,1,.10994.63087,1.97738,1.97738,0,0,1-.07766.75905l-.237-.7242a25.20824,25.20824,0,0,1,4.332,3.82053,15.70237,15.70237,0,0,1,3.13657,4.923,8.4523,8.4523,0,0,1,.42713,1.43928,7.3189,7.3189,0,0,1,.20736,1.5022,8.15638,8.15638,0,0,1-.05473,1.52442c-.04948.506-.19673.981-.29333,1.473a20.87739,20.87739,0,0,1-2.42161,5.27923,56.09845,56.09845,0,0,1-7.09744,8.90631l-.496.51017-.25076.2524-.12538.12608-.06432.09333a3.15725,3.15725,0,0,0-.46035,1.01823,15.82666,15.82666,0,0,0-.473,2.64207,47.53767,47.53767,0,0,0-.22363,5.53185l-.67858-.66244,2.79575.02339a.66078.66078,0,0,1,.65519.64022l.00047.01521a15.23817,15.23817,0,0,0,1.09472,5.06355,11.91017,11.91017,0,0,0,1.1794,2.2926,20.76129,20.76129,0,0,0,1.71963,2.00606c2.49669,2.5761,5.27572,4.93677,7.94913,7.40411,1.34255,1.23039,2.6809,2.47037,3.95948,3.7831,1.29027,1.33005,2.407,2.73237,3.68615,4.02311a16.55666,16.55666,0,0,1,1.78711,2.11155,6.49287,6.49287,0,0,1,1.00747,2.60347,19.69282,19.69282,0,0,1-.20362,5.47314.06784.06784,0,0,1-.13462-.01684,19.49257,19.49257,0,0,0-.01158-5.39291,6.07079,6.07079,0,0,0-1.04046-2.4023,16.11776,16.11776,0,0,0-1.81436-1.97261c-1.33425-1.24045-2.51774-2.66523-3.79924-3.905-1.29367-1.2566-2.657-2.45143-4.0279-3.63949-2.74476-2.37657-5.55794-4.6804-8.16562-7.28621a21.78166,21.78166,0,0,1-1.86009-2.10126,12.97362,12.97362,0,0,1-1.35858-2.51973,16.38006,16.38006,0,0,1-1.27811-5.52414l.65543.65543-2.79575.02316a.67322.67322,0,0,1-.67859-.66268,48.83032,48.83032,0,0,1,.21029-5.71033,17.07387,17.07387,0,0,1,.51251-2.89143,4.32667,4.32667,0,0,1,.72022-1.51436,2.19519,2.19519,0,0,1,.27052-.31041l.24433-.24771.48315-.50058a54.75784,54.75784,0,0,0,6.88-8.69181,19.98384,19.98384,0,0,0,2.305-4.89678,7.91979,7.91979,0,0,0-.19906-5.10051,14.41744,14.41744,0,0,0-2.84148-4.53468,24.04287,24.04287,0,0,0-4.05527-3.65024l-.237-.72444a1.38183,1.38183,0,0,0,.01-.26455,1.73981,1.73981,0,0,0-.065-.38409,3.09631,3.09631,0,0,0-.34234-.79321,6.77782,6.77782,0,0,0-1.20361-1.45191,13.307,13.307,0,0,0-3.25036-2.20886,16.73836,16.73836,0,0,0-7.84083-1.15858,21.84694,21.84694,0,0,0-3.994.6166,9.98952,9.98952,0,0,0-3.62171,1.58571,24.04728,24.04728,0,0,0-2.91083,2.84067,8.25008,8.25008,0,0,1-1.636,1.38056,3.594,3.594,0,0,1-2.14289.52842l.27543-.17544a2.16011,2.16011,0,0,0,.06515,1.56489,2.404,2.404,0,0,0,1.202,1.08958,8.766,8.766,0,0,0,3.46323.60256.23433.23433,0,0,1,.23169.237.25141.25141,0,0,1-.02538.10339,33.1759,33.1759,0,0,0-1.8436,4.39222,18.8591,18.8591,0,0,0-1.00431,4.643c-.32245,3.22872-1.69682,6.25184-1.67624,9.40408-.05789,1.66524-.42046,3.21492-.50537,4.79385a9.37057,9.37057,0,0,0,.61508,4.52485,5.49762,5.49762,0,0,0,3.26428,2.85447,13.92091,13.92091,0,0,0,4.54895.7125l.01333.0007a.52785.52785,0,0,1,.49438.43415c.15684.87718.28514,1.74407.38362,2.62873a13.38008,13.38008,0,0,1,.06012,2.74149,2.06111,2.06111,0,0,1-.27064.85893.95178.95178,0,0,1-.2655.2793,1.1984,1.1984,0,0,1-.36116.1469l-.3159.07672-1.26373.3069-2.527.61332.44841-.57215a5.863,5.863,0,0,1-1.013,3.38053,2.70511,2.70511,0,0,1-.75835.669,4.52565,4.52565,0,0,1-.83367.3621l-1.53179.50058c-2.02079.64186-4.024,1.29753-5.96717,2.09213a25.96844,25.96844,0,0,0-5.49162,2.91225,8.44634,8.44634,0,0,0-2.10173,2.10336,15.11948,15.11948,0,0,0-1.12782,2.83224c-1.30478,4.02193-2.52079,8.1234-4.15328,12.07a41.213,41.213,0,0,1-2.89692,5.715,15.76111,15.76111,0,0,1-4.24368,4.76742.06784.06784,0,0,1-.09439-.01731A.06875.06875,0,0,1,384.335,177.81335Z" class="color020202 svgShape"></path><path fill="#767fad" d="M417.931 107.68238a5.22473 5.22473 0 011.84418-.75368 6.66324 6.66324 0 012.01191-.11976 5.64632 5.64632 0 011.95482.54268 4.49909 4.49909 0 011.5787 1.22946 17.06992 17.06992 0 00-1.80782-.622 10.18806 10.18806 0 00-1.80652-.32234A20.576 20.576 0 00417.931 107.68238zM409.54276 111.21636a4.21 4.21 0 012.28921-.72069 3.228 3.228 0 012.30429.72069l-2.27786.11065A11.382 11.382 0 01409.54276 111.21636zM421.62575 115.30508a1.249 1.249 0 000-2.49649 1.249 1.249 0 000 2.49649zM411.8395 116.0041a1.249 1.249 0 000-2.49649 1.249 1.249 0 000 2.49649zM412.83055 125.78389a8.00187 8.00187 0 002.09588-.18527 8.131 8.131 0 00.96747-.29613c.33239-.11743.661-.26807 1.05847-.39087a2.66681 2.66681 0 01-1.83635 1.49682A2.345 2.345 0 01412.83055 125.78389zM434.22815 127.35907a36.80111 36.80111 0 01-5.96132 3.63831 18.22041 18.22041 0 01-6.64108 1.93284 18.01478 18.01478 0 006.45-2.30242 36.2584 36.2584 0 005.6218-3.90966l.01228-.01052a.41648.41648 0 01.53789.636zM414.9352 114.05679a4.07626 4.07626 0 01-.085 2.51786 4.62017 4.62017 0 01-.60385 1.16607 9.61919 9.61919 0 00-.71613.93005c-.37029.59952-.45719 1.29191.08479 1.661a3.94483 3.94483 0 002.21892.41566 3.96371 3.96371 0 01-1.2146.34666 2.29883 2.29883 0 01-1.33987-.20631 1.51444 1.51444 0 01-.83425-1.25378 2.461 2.461 0 01.37379-1.39437 8.03421 8.03421 0 01.80654-.98057 5.47214 5.47214 0 00.62958-.93823A6.53344 6.53344 0 00414.9352 114.05679z" class="color020202 svgShape"></path><path fill="#767fad" d="M438.21686 122.25742c1.21272-2.28468.68462-3.10774-.61356-5.60423s-6.6906 2.69621-6.6906 2.69621v-8.98951c2.49649-1.5 2.69621-6.88818 0-9.78411s-16.377.9986-16.377.9986l-.00287-.00336c-6.38582 0-4.98786-3.5899-4.98786-3.5899 2.99272.1968 4.19388-3.59669 7.39018-5.395 3.18951-1.79834 11.38046-2.99272 16.17153 0 4.79784 2.9995 3.99707 5.19145 3.99707 5.19145s7.79056 5.19823 7.79056 11.58405c0 3.91071-3.3651 8.86778-6.34318 12.49253M453.47935 158.69525c-3.99538-4.58941-13.77782-11.78487-15.78013-15.3778-1.35109 1.61916-2.79774 3.15224-4.26369 4.647-1.46582 1.50431-2.97972 2.95084-4.5128 4.388a.66851.66851 0 01-.94853-.03836.616.616 0 01-.17239-.364v-.00959c-.29707-2.24208-.55578-4.49351-.74736-6.75476-.19158-2.261-.33532-4.53187-.33532-6.81207l-9.0925 12.12965-3.31516-10.29974-.37357.31626s0 2.4816-1.34138 3.43971a9.36994 9.36994 0 01-2.85517 5.49934 9.29649 9.29649 0 012.85517-5.49934 1.69232 1.69232 0 01-.25871.15322c-1.6001.8049-14.38121 3.7941-16.37416 8.987-2.00255 5.19315-4.99175 19.9768-11.5933 24.76738l48.72028-4.46473a56.66266 56.66266 0 013.45878-4.78122 45.70223 45.70223 0 014.50321-4.93421c-2.07915 3.23832-4.23491 6.362-6.26611 9.562L458.4711 171.074C459.46758 163.08349 457.47462 163.28466 453.47935 158.69525zm-53.57786-2.40488c-.49824 1.45635-1.08268 2.87435-1.6863 4.28275-.63238 1.39881-1.28384 2.78827-2.02161 4.13912a29.00917 29.00917 0 01-2.4816 3.91878 85.03268 85.03268 0 013.25773-8.60409c.62269-1.38922 1.26467-2.788 1.96407-4.14848a40.77442 40.77442 0 012.27073-4.02428A34.72609 34.72609 0 01399.90149 156.29037zm8.09614 13.586a1.24633 1.24633 0 010-2.49119A1.24633 1.24633 0 01407.99763 169.87638zm5.0397-12.28287a1.2462 1.2462 0 010-2.49119A1.2462 1.2462 0 01413.03733 157.59351zm22.66893-21.27035h-2.788l-6.1991 2.0505c.57485 2.20347 1.01555 4.436 1.40852 6.66844.316 1.82033.58432 3.64089.83344 5.46121 1.236-1.12092 2.4912-2.23225 3.775-3.29586 1.60968-1.35086 3.23843-2.67318 4.96309-3.89A15.9398 15.9398 0 01435.70626 136.32316z" class="color020202 svgShape"></path></g></svg></g></svg>