<svg height="512" viewBox="0 0 128 128" width="512" xmlns="http://www.w3.org/2000/svg"><g id="Circle_Grid" data-name="Circle Grid"><circle cx="64" cy="64" fill="#f6c863" r="64"/></g><g id="icon"><path d="m28.941 35.941h70.123a2 2 0 0 1 2 2v45.921a0 0 0 0 1 0 0h-74.123a0 0 0 0 1 0 0v-45.921a2 2 0 0 1 2-2z" fill="#575b6d"/><path d="m43.405 26.203h41.195v67.397h-41.195z" fill="#69b0ee" transform="matrix(0 1 -1 0 123.904 -4.101)"/><path d="m105.218 83.862a.734.734 0 0 1 .779.76 7.82 7.82 0 0 1 -2.668 5.037 9.846 9.846 0 0 1 -6.541 2.4h-65.576c-4.814 0-8.776-3.263-9.209-7.437a.734.734 0 0 1 .779-.76z" fill="#62667c"/><path d="m55.032 83.862h17.936a0 0 0 0 1 0 0 1.962 1.962 0 0 1 -1.962 1.962h-14.012a1.962 1.962 0 0 1 -1.962-1.962 0 0 0 0 1 0 0z" fill="#828a9e"/><g fill="#eeefee"><path d="m58.721 70.938 8.494-22.074h2.07l-8.524 22.074z"/><path d="m42.637 59.079 14.126-7.279v2.1l-11.905 5.971v.061l11.905 5.968v2.1l-14.126-7.276z"/><path d="m85.368 60.754-14.126 7.246v-2.1l11.994-5.967v-.061l-11.994-5.972v-2.1l14.127 7.247z"/></g></g></svg>