<svg width="25" height="25" viewBox="0 0 25 25" fill="none" xmlns="http://www.w3.org/2000/svg">
<path d="M22 6H17.67V4.67C17.67 3.75 16.92 3 16 3H10C9.08 3 8.33 3.75 8.33 4.67V6H4C3.73478 6 3.48043 6.10536 3.29289 6.29289C3.10536 6.48043 3 6.73478 3 7V14.42C3 14.84 3.27 15.22 3.67 15.36V20C3.67 20.2652 3.77536 20.5196 3.96289 20.7071C4.15043 20.8946 4.40478 21 4.67 21H21.33C21.5952 21 21.8496 20.8946 22.0371 20.7071C22.2246 20.5196 22.33 20.2652 22.33 20V15.36C22.5251 15.2918 22.6943 15.1648 22.8143 14.9964C22.9343 14.8281 22.9992 14.6267 23 14.42V7C23 6.73478 22.8946 6.48043 22.7071 6.29289C22.5196 6.10536 22.2652 6 22 6ZM9 4.67C9 4.40478 9.10536 4.15043 9.29289 3.96289C9.48043 3.77536 9.73478 3.67 10 3.67H16C16.2652 3.67 16.5196 3.77536 16.7071 3.96289C16.8946 4.15043 17 4.40478 17 4.67V6H16.33V4.67C16.3313 4.62583 16.3238 4.58184 16.3078 4.54064C16.2918 4.49944 16.2677 4.46187 16.237 4.43016C16.2062 4.39845 16.1693 4.37325 16.1286 4.35604C16.0879 4.33884 16.0442 4.32998 16 4.33H10C9.95581 4.32998 9.91206 4.33884 9.87136 4.35604C9.83066 4.37325 9.79383 4.39845 9.76305 4.43016C9.73227 4.46187 9.70817 4.49944 9.69219 4.54064C9.67621 4.58184 9.66866 4.62583 9.67 4.67V6H9V4.67ZM15.67 6H10.33V5H15.67V6ZM21.67 20C21.67 20.18 21.52 20.33 21.33 20.33H4.67C4.62583 20.3313 4.58184 20.3238 4.54064 20.3078C4.49944 20.2918 4.46187 20.2677 4.43016 20.237C4.39845 20.2062 4.37325 20.1693 4.35604 20.1286C4.33884 20.0879 4.32998 20.0442 4.33 20V15.48L11.67 16.48V17.33C11.67 17.5952 11.7754 17.8496 11.9629 18.0371C12.1504 18.2246 12.4048 18.33 12.67 18.33H13.33C13.5952 18.33 13.8496 18.2246 14.0371 18.0371C14.2246 17.8496 14.33 17.5952 14.33 17.33V16.49L21.67 15.48V20ZM13.67 17.33C13.67 17.52 13.52 17.67 13.33 17.67H12.67C12.625 17.6714 12.5801 17.6635 12.5383 17.6469C12.4964 17.6303 12.4584 17.6054 12.4265 17.5735C12.3946 17.5416 12.3697 17.5036 12.3531 17.4617C12.3365 17.4199 12.3286 17.375 12.33 17.33V15.33C12.33 15.15 12.48 15 12.67 15H13.33C13.52 15 13.67 15.15 13.67 15.33V17.33ZM22.33 14.42C22.33 14.59 22.21 14.72 22.05 14.75L21.95 14.76L14.33 15.81V15.33C14.33 15.0648 14.2246 14.8104 14.0371 14.6229C13.8496 14.4354 13.5952 14.33 13.33 14.33H12.67C12.4048 14.33 12.1504 14.4354 11.9629 14.6229C11.7754 14.8104 11.67 15.0648 11.67 15.33V15.81L3.95 14.75C3.8714 14.738 3.79979 14.6979 3.74835 14.6373C3.69691 14.5767 3.66908 14.4995 3.67 14.42V7C3.67 6.82 3.82 6.67 4 6.67H22C22.18 6.67 22.33 6.82 22.33 7V14.42Z" fill="#2677C5"/>
</svg>
