<svg width="20" height="20" viewBox="0 0 20 20" fill="none" xmlns="http://www.w3.org/2000/svg">
<path d="M11.72 1.95637e-08C11.8243 0.00260943 11.9235 0.0459015 11.9964 0.120635C12.0693 0.195369 12.11 0.295624 12.11 0.4V2.07C12.81 2.26 13.48 2.54 14.11 2.9L15.31 1.71C15.3843 1.63967 15.4827 1.60047 15.585 1.60047C15.6873 1.60047 15.7857 1.63967 15.86 1.71L18.29 4.14C18.3275 4.17636 18.3573 4.21988 18.3777 4.26797C18.398 4.31607 18.4085 4.36777 18.4085 4.42C18.4085 4.47223 18.398 4.52393 18.3777 4.57203C18.3573 4.62012 18.3275 4.66364 18.29 4.7L17.09 5.89C17.46 6.52 17.74 7.19 17.93 7.89H19.61C19.7143 7.89261 19.8135 7.9359 19.8864 8.01064C19.9593 8.08537 20 8.18562 20 8.29V11.72C19.9974 11.8243 19.9541 11.9235 19.8794 11.9964C19.8046 12.0693 19.7044 12.11 19.6 12.11H17.93C17.74 12.81 17.47 13.49 17.1 14.11L18.29 15.31C18.3603 15.3843 18.3995 15.4827 18.3995 15.585C18.3995 15.6873 18.3603 15.7857 18.29 15.86L15.86 18.29C15.7852 18.3633 15.6847 18.4043 15.58 18.4043C15.4753 18.4043 15.3748 18.3633 15.3 18.29L14.12 17.1C13.49 17.47 12.82 17.75 12.11 17.94V19.61C12.1074 19.7143 12.0641 19.8135 11.9894 19.8864C11.9146 19.9593 11.8144 20 11.71 20H8.28C8.17566 19.9974 8.07647 19.9541 8.0036 19.8794C7.93073 19.8046 7.88997 19.7044 7.89 19.6V17.94C7.18589 17.7545 6.50986 17.4753 5.88 17.11L4.7 18.29C4.62523 18.3633 4.5247 18.4043 4.42 18.4043C4.3153 18.4043 4.21477 18.3633 4.14 18.29L1.71 15.86C1.63671 15.7852 1.59566 15.6847 1.59566 15.58C1.59566 15.4753 1.63671 15.3748 1.71 15.3L2.89 14.12C2.52468 13.4901 2.24552 12.8141 2.06 12.11H0.39C0.285656 12.1074 0.186465 12.0641 0.1136 11.9894C0.0407348 11.9146 -3.26031e-05 11.8144 1.95637e-08 11.71V8.28C0.00260943 8.17566 0.0459015 8.07647 0.120635 8.0036C0.195369 7.93073 0.295624 7.88997 0.4 7.89H2.06C2.25 7.19 2.53 6.51 2.9 5.88L1.7 4.7C1.62671 4.62523 1.58566 4.5247 1.58566 4.42C1.58566 4.3153 1.62671 4.21477 1.7 4.14L4.13 1.71C4.20477 1.63671 4.3053 1.59566 4.41 1.59566C4.5147 1.59566 4.61523 1.63671 4.69 1.71L5.88 2.9C6.51 2.53 7.18 2.26 7.89 2.07V0.39C7.89261 0.285656 7.9359 0.186465 8.01064 0.1136C8.08537 0.0407348 8.18562 -3.26031e-05 8.29 1.95637e-08H11.72ZM11.32 0.78H8.67V2.38C8.67 2.56 8.55 2.72 8.37 2.76C7.54 2.94 6.75 3.26 6.03 3.72C5.95599 3.76674 5.8684 3.78723 5.78134 3.77816C5.69427 3.76909 5.61279 3.73099 5.55 3.67L4.42 2.54L2.54 4.42L3.67 5.54C3.73422 5.60508 3.77421 5.69019 3.78331 5.78117C3.79241 5.87215 3.77007 5.96349 3.72 6.04C3.26 6.75 2.94 7.54 2.75 8.37C2.72816 8.45467 2.67917 8.52984 2.61054 8.58402C2.54191 8.6382 2.45742 8.6684 2.37 8.67H0.78V11.33H2.37C2.45742 11.3316 2.54191 11.3618 2.61054 11.416C2.67917 11.4702 2.72816 11.5453 2.75 11.63C2.93 12.46 3.26 13.25 3.72 13.97C3.76626 14.0466 3.78548 14.1365 3.77461 14.2254C3.76373 14.3142 3.72338 14.3968 3.66 14.46L2.54 15.58L4.42 17.46L5.54 16.34C5.60222 16.275 5.685 16.2335 5.7743 16.2226C5.8636 16.2117 5.95394 16.2319 6.03 16.28C6.75 16.74 7.53 17.07 8.37 17.25C8.55 17.29 8.67 17.45 8.67 17.63V19.22H11.33V17.63C11.3316 17.5426 11.3618 17.4581 11.416 17.3895C11.4702 17.3208 11.5453 17.2718 11.63 17.25C12.4601 17.0641 13.2518 16.736 13.97 16.28C14.0455 16.2325 14.1348 16.2116 14.2236 16.2206C14.3124 16.2297 14.3956 16.2682 14.46 16.33L15.58 17.46L17.46 15.58L16.33 14.45C16.269 14.3872 16.2309 14.3057 16.2218 14.2187C16.2128 14.1316 16.2333 14.044 16.28 13.97C16.73 13.25 17.06 12.47 17.24 11.63C17.2618 11.5453 17.3108 11.4702 17.3795 11.416C17.4481 11.3618 17.5326 11.3316 17.62 11.33H19.22V8.67H17.62C17.5326 8.6684 17.4481 8.6382 17.3795 8.58402C17.3108 8.52984 17.2618 8.45467 17.24 8.37C17.053 7.54334 16.7249 6.75511 16.27 6.04C16.2237 5.96339 16.2045 5.87347 16.2154 5.78464C16.2263 5.69581 16.2666 5.61319 16.33 5.55L17.46 4.42L15.58 2.54L14.45 3.67C14.3868 3.73338 14.3042 3.77373 14.2154 3.78461C14.1265 3.79548 14.0366 3.77626 13.96 3.73C13.2449 3.2751 12.4567 2.94695 11.63 2.76C11.5453 2.73816 11.4702 2.68917 11.416 2.62054C11.3618 2.55191 11.3316 2.46742 11.33 2.38V0.78H11.32ZM11.62 5.19C11.6979 5.23711 11.7575 5.30939 11.7887 5.39492C11.82 5.48044 11.8212 5.57408 11.792 5.66035C11.7629 5.74663 11.7052 5.82038 11.6284 5.8694C11.5517 5.91843 11.4605 5.93981 11.37 5.93C10.4469 5.61719 9.44485 5.62729 8.5282 5.95864C7.61156 6.28999 6.83468 6.92293 6.32493 7.7537C5.81518 8.58447 5.6028 9.56377 5.7226 10.5311C5.84241 11.4984 6.28729 12.3963 6.98432 13.0776C7.68134 13.7589 8.58916 14.1832 9.55894 14.2809C10.5287 14.3786 11.5029 14.1439 12.3219 13.6154C13.1408 13.0868 13.7558 12.2957 14.0662 11.3717C14.3765 10.4477 14.3638 9.44576 14.03 8.53C13.9965 8.47974 13.9749 8.42254 13.9666 8.36271C13.9584 8.30288 13.9639 8.24197 13.9825 8.18454C14.0012 8.12711 14.0327 8.07465 14.0745 8.03111C14.1164 7.98757 14.1675 7.95406 14.2242 7.93311C14.2808 7.91216 14.3415 7.90431 14.4016 7.91015C14.4617 7.91598 14.5197 7.93535 14.5712 7.9668C14.6228 7.99825 14.6666 8.04097 14.6993 8.09175C14.7319 8.14253 14.7527 8.20005 14.76 8.26C15.0346 9.02652 15.1217 9.84765 15.014 10.6547C14.9063 11.4618 14.607 12.2314 14.141 12.8991C13.675 13.5667 13.0558 14.1132 12.3354 14.4926C11.615 14.872 10.8142 15.0734 10 15.08C9.26265 15.0806 8.534 14.9207 7.86468 14.6113C7.19535 14.302 6.60139 13.8506 6.12405 13.2886C5.64671 12.7267 5.29743 12.0675 5.10048 11.3569C4.90352 10.6464 4.86361 9.90143 4.98352 9.1739C5.10343 8.44636 5.38028 7.75364 5.79484 7.14387C6.2094 6.53409 6.75174 6.02187 7.38419 5.64278C8.01663 5.2637 8.72401 5.02683 9.45721 4.94864C10.1904 4.87045 10.9318 4.95281 11.63 5.19H11.62ZM10 7.27C10.7267 7.27 11.4236 7.55868 11.9375 8.07253C12.4513 8.58638 12.74 9.28331 12.74 10.01C12.74 10.7367 12.4513 11.4336 11.9375 11.9475C11.4236 12.4613 10.7267 12.75 10 12.75C9.27331 12.75 8.57638 12.4613 8.06253 11.9475C7.54868 11.4336 7.26 10.7367 7.26 10.01C7.26 9.28331 7.54868 8.58638 8.06253 8.07253C8.57638 7.55868 9.27331 7.27 10 7.27ZM10 8.05C9.73147 8.03148 9.462 8.06848 9.20839 8.15868C8.95478 8.24888 8.72247 8.39035 8.52593 8.57427C8.3294 8.75819 8.17285 8.98062 8.06606 9.2277C7.95926 9.47477 7.9045 9.7412 7.90519 10.0104C7.90587 10.2795 7.962 10.5457 8.07006 10.7922C8.17812 11.0387 8.3358 11.2604 8.53327 11.4433C8.73074 11.6262 8.96378 11.7665 9.21784 11.8554C9.47191 11.9443 9.74156 11.9799 10.01 11.96C10.4931 11.911 10.9408 11.6844 11.2664 11.3242C11.592 10.9639 11.7723 10.4956 11.7723 10.01C11.7723 9.52441 11.592 9.05611 11.2664 8.69584C10.9408 8.33557 10.4931 8.10899 10.01 8.06L10 8.05ZM13.6 6.4C13.6733 6.47477 13.7143 6.5753 13.7143 6.68C13.7143 6.7847 13.6733 6.88523 13.6 6.96L13.58 6.97C13.5069 7.04267 13.4081 7.08346 13.305 7.08346C13.2019 7.08346 13.1031 7.04267 13.03 6.97C12.9597 6.89571 12.9205 6.7973 12.9205 6.695C12.9205 6.5927 12.9597 6.49429 13.03 6.42L13.05 6.4C13.1243 6.32967 13.2227 6.29047 13.325 6.29047C13.4273 6.29047 13.5257 6.32967 13.6 6.4Z" fill="#2677C5"/>
</svg>
