<svg width="20" height="20" viewBox="0 0 20 20" fill="none" xmlns="http://www.w3.org/2000/svg">
<path fill-rule="evenodd" clip-rule="evenodd" d="M9.99102 1.66675C5.39102 1.66675 1.66602 5.40008 1.66602 10.0001C1.66602 14.6001 5.39102 18.3334 9.99102 18.3334C14.5993 18.3334 18.3327 14.6001 18.3327 10.0001C18.3327 5.40008 14.5993 1.66675 9.99102 1.66675ZM10.8327 10.8334V5.83341H9.16602V10.8334H10.8327ZM10.8327 14.1667V12.5001H9.16602V14.1667H10.8327ZM3.33268 10.0001C3.33268 13.6834 6.31602 16.6667 9.99935 16.6667C13.6827 16.6667 16.666 13.6834 16.666 10.0001C16.666 6.31675 13.6827 3.33341 9.99935 3.33341C6.31602 3.33341 3.33268 6.31675 3.33268 10.0001Z" fill="black" fill-opacity="0.54"/>
</svg>
