<svg width="25" height="25" viewBox="0 0 25 25" fill="none" xmlns="http://www.w3.org/2000/svg">
<path d="M17.1 3C17.76 3 18.28 3.53 18.28 4.17V5.34H19.45C20.1 5.34 20.63 5.87 20.63 6.52V21.82C20.63 22.47 20.1 23 19.45 23H8.52C7.87 23 7.34 22.47 7.34 21.83V20.43H6.17C5.53 20.43 5 19.9 5 19.25V8.4C5 8.09 5.13 7.79 5.34 7.57L9.57 3.34C9.79 3.13 10.09 3 10.4 3H17.1ZM19.45 6.13H18.28V19.25C18.28 19.9 17.76 20.42 17.11 20.42H8.13V21.82C8.13 22.04 8.3 22.22 8.52 22.22H19.45C19.5561 22.22 19.6578 22.1779 19.7328 22.1028C19.8079 22.0278 19.85 21.9261 19.85 21.82V6.53C19.85 6.42391 19.8079 6.32217 19.7328 6.24716C19.6578 6.17214 19.5561 6.13 19.45 6.13ZM17.11 3.78H10.47V8.08C10.4674 8.18434 10.4241 8.28354 10.3494 8.3564C10.2746 8.42927 10.1744 8.47003 10.07 8.47H5.79V19.25C5.79 19.47 5.97 19.65 6.19 19.65H17.1C17.2043 19.6474 17.3035 19.6041 17.3764 19.5294C17.4493 19.4546 17.49 19.3544 17.49 19.25V4.17C17.4874 4.06566 17.4441 3.96647 17.3694 3.8936C17.2946 3.82073 17.1944 3.77997 17.09 3.78H17.11ZM15.55 17.06C15.6086 17.0466 15.6694 17.0467 15.728 17.0601C15.7866 17.0734 15.8414 17.0998 15.8883 17.1373C15.9353 17.1748 15.9732 17.2223 15.9993 17.2765C16.0253 17.3306 16.0389 17.3899 16.0389 17.45C16.0389 17.5101 16.0253 17.5694 15.9993 17.6235C15.9732 17.6777 15.9353 17.7252 15.8883 17.7627C15.8414 17.8002 15.7866 17.8266 15.728 17.8399C15.6694 17.8533 15.6086 17.8534 15.55 17.84H7.73C7.67142 17.8534 7.61059 17.8533 7.55201 17.8399C7.49344 17.8266 7.43864 17.8002 7.39167 17.7627C7.3447 17.7252 7.30678 17.6777 7.28072 17.6235C7.25465 17.5694 7.24112 17.5101 7.24112 17.45C7.24112 17.3899 7.25465 17.3306 7.28072 17.2765C7.30678 17.2223 7.3447 17.1748 7.39167 17.1373C7.43864 17.0998 7.49344 17.0734 7.55201 17.0601C7.61059 17.0467 7.67142 17.0466 7.73 17.06H15.55ZM15.55 14.72C15.6086 14.7066 15.6694 14.7067 15.728 14.7201C15.7866 14.7334 15.8414 14.7598 15.8883 14.7973C15.9353 14.8348 15.9732 14.8823 15.9993 14.9365C16.0253 14.9906 16.0389 15.0499 16.0389 15.11C16.0389 15.1701 16.0253 15.2294 15.9993 15.2835C15.9732 15.3377 15.9353 15.3852 15.8883 15.4227C15.8414 15.4602 15.7866 15.4866 15.728 15.4999C15.6694 15.5133 15.6086 15.5134 15.55 15.5H7.73C7.67142 15.5134 7.61059 15.5133 7.55201 15.4999C7.49344 15.4866 7.43864 15.4602 7.39167 15.4227C7.3447 15.3852 7.30678 15.3377 7.28072 15.2835C7.25465 15.2294 7.24112 15.1701 7.24112 15.11C7.24112 15.0499 7.25465 14.9906 7.28072 14.9365C7.30678 14.8823 7.3447 14.8348 7.39167 14.7973C7.43864 14.7598 7.49344 14.7334 7.55201 14.7201C7.61059 14.7067 7.67142 14.7066 7.73 14.72H15.55ZM15.55 12.37C15.6071 12.3609 15.6656 12.3643 15.7213 12.3799C15.777 12.3956 15.8286 12.4231 15.8726 12.4607C15.9167 12.4982 15.952 12.5449 15.9763 12.5974C16.0005 12.65 16.013 12.7071 16.013 12.765C16.013 12.8229 16.0005 12.88 15.9763 12.9326C15.952 12.9851 15.9167 13.0318 15.8726 13.0693C15.8286 13.1069 15.777 13.1344 15.7213 13.1501C15.6656 13.1657 15.6071 13.1691 15.55 13.16H7.73C7.67286 13.1691 7.61443 13.1657 7.55872 13.1501C7.50302 13.1344 7.45138 13.1069 7.40736 13.0693C7.36334 13.0318 7.32799 12.9851 7.30375 12.9326C7.27951 12.88 7.26695 12.8229 7.26695 12.765C7.26695 12.7071 7.27951 12.65 7.30375 12.5974C7.32799 12.5449 7.36334 12.4982 7.40736 12.4607C7.45138 12.4231 7.50302 12.3956 7.55872 12.3799C7.61443 12.3643 7.67286 12.3609 7.73 12.37H15.55ZM7.73 10.03C7.78858 10.0166 7.84941 10.0167 7.90799 10.0301C7.96656 10.0434 8.02136 10.0698 8.06833 10.1073C8.1153 10.1448 8.15322 10.1923 8.17928 10.2465C8.20535 10.3006 8.21888 10.3599 8.21888 10.42C8.21888 10.4801 8.20535 10.5394 8.17928 10.5935C8.15322 10.6477 8.1153 10.6952 8.06833 10.7327C8.02136 10.7702 7.96656 10.7966 7.90799 10.8099C7.84941 10.8233 7.78858 10.8234 7.73 10.81C7.64163 10.7899 7.56271 10.7403 7.50619 10.6694C7.44967 10.5986 7.41888 10.5106 7.41888 10.42C7.41888 10.3294 7.44967 10.2414 7.50619 10.1706C7.56271 10.0997 7.64163 10.0501 7.73 10.03ZM15.55 10.03C15.6086 10.0166 15.6694 10.0167 15.728 10.0301C15.7866 10.0434 15.8414 10.0698 15.8883 10.1073C15.9353 10.1448 15.9732 10.1923 15.9993 10.2465C16.0253 10.3006 16.0389 10.3599 16.0389 10.42C16.0389 10.4801 16.0253 10.5394 15.9993 10.5935C15.9732 10.6477 15.9353 10.6952 15.8883 10.7327C15.8414 10.7702 15.7866 10.7966 15.728 10.8099C15.6694 10.8233 15.6086 10.8234 15.55 10.81H9.3C9.24142 10.8234 9.18059 10.8233 9.12201 10.8099C9.06344 10.7966 9.00864 10.7702 8.96167 10.7327C8.9147 10.6952 8.87678 10.6477 8.85072 10.5935C8.82465 10.5394 8.81112 10.4801 8.81112 10.42C8.81112 10.3599 8.82465 10.3006 8.85072 10.2465C8.87678 10.1923 8.9147 10.1448 8.96167 10.1073C9.00864 10.0698 9.06344 10.0434 9.12201 10.0301C9.18059 10.0167 9.24142 10.0166 9.3 10.03H15.55ZM15.55 5.34C15.6543 5.34261 15.7535 5.3859 15.8264 5.46063C15.8993 5.53537 15.94 5.63562 15.94 5.74V8.08C15.9374 8.18434 15.8941 8.28354 15.8194 8.3564C15.7446 8.42927 15.6444 8.47003 15.54 8.47H12.42C12.3157 8.46739 12.2165 8.4241 12.1436 8.34937C12.0707 8.27463 12.03 8.17438 12.03 8.07V5.74C12.0326 5.63566 12.0759 5.53647 12.1506 5.4636C12.2254 5.39073 12.3256 5.34997 12.43 5.35L15.55 5.34ZM9.69 4.34L6.33 7.68H9.7V4.33L9.69 4.34ZM15.16 6.13H12.8V7.69H15.15V6.12L15.16 6.13Z" fill="#2677C5"/>
</svg>
