<svg width="16" height="16" viewBox="0 0 16 16" fill="none" xmlns="http://www.w3.org/2000/svg">
<path fill-rule="evenodd" clip-rule="evenodd" d="M8.00065 1.33325C4.31398 1.33325 1.33398 4.31325 1.33398 7.99992C1.33398 11.6866 4.31398 14.6666 8.00065 14.6666C11.6873 14.6666 14.6673 11.6866 14.6673 7.99992C14.6673 4.31325 11.6873 1.33325 8.00065 1.33325ZM8 13.3333C5.06 13.3333 2.66667 10.94 2.66667 8C2.66667 5.06 5.06 2.66667 8 2.66667C10.94 2.66667 13.3333 5.06 13.3333 8C13.3333 10.94 10.94 13.3333 8 13.3333ZM8 7.06L10.3933 4.66667L11.3333 5.60667L8.94 8L11.3333 10.3933L10.3933 11.3333L8 8.94L5.60667 11.3333L4.66667 10.3933L7.06 8L4.66667 5.60667L5.60667 4.66667L8 7.06Z" fill="#999999"/>
</svg>
