<svg width="28" height="25" viewBox="0 0 28 25" fill="none" xmlns="http://www.w3.org/2000/svg">
<path d="M13.864 13.1499C13.9283 13.1198 14.0001 13.1113 14.0694 13.1256C14.1386 13.14 14.2017 13.1765 14.2499 13.2299L17.0086 16.1699C17.0684 16.2424 17.1012 16.3346 17.1012 16.4299C17.1012 16.5253 17.0684 16.6175 17.0086 16.6899C16.977 16.7248 16.9389 16.7525 16.8966 16.7715C16.8543 16.7904 16.8087 16.8002 16.7626 16.8002C16.7165 16.8002 16.6709 16.7904 16.6286 16.7715C16.5863 16.7525 16.5482 16.7248 16.5167 16.6899L14.3463 14.3799V21.9499C14.3463 22.1499 14.192 22.3199 13.9991 22.3199C13.9526 22.32 13.9067 22.3103 13.8639 22.2916C13.8211 22.2729 13.7824 22.2455 13.7501 22.211C13.7177 22.1765 13.6923 22.1356 13.6754 22.0908C13.6586 22.0459 13.6505 21.9981 13.6518 21.9499V14.3799L11.4911 16.6899C11.4597 16.7232 11.4222 16.7496 11.3808 16.7677C11.3394 16.7857 11.2949 16.795 11.25 16.795C11.2051 16.795 11.1606 16.7857 11.1192 16.7677C11.0778 16.7496 11.0403 16.7232 11.0088 16.6899C10.9451 16.6195 10.9096 16.5265 10.9096 16.4299C10.9096 16.3333 10.9451 16.2404 11.0088 16.1699L13.7676 13.2299C13.7977 13.1965 13.8337 13.1694 13.8737 13.1499H13.864ZM15.5038 2.99994C17.0802 2.98762 18.6023 3.5961 19.7625 4.70242C20.9228 5.80874 21.6347 7.33041 21.7544 8.95994C23.6836 9.45994 25.0919 11.2699 25.0919 13.2899C25.0666 14.4879 24.5844 15.6267 23.751 16.457C22.9176 17.2873 21.8008 17.7414 20.6451 17.7199H19.1789C19.1308 17.7213 19.0829 17.7128 19.0379 17.6949C18.993 17.677 18.9518 17.6501 18.9169 17.6158C18.882 17.5814 18.8539 17.5402 18.8343 17.4946C18.8147 17.449 18.804 17.3998 18.8027 17.3499C18.8027 17.1499 18.9764 16.9799 19.1789 16.9799H20.6451C21.608 16.9987 22.5387 16.6207 23.2331 15.929C23.9275 15.2372 24.3289 14.2881 24.3492 13.2899C24.3316 12.411 24.0214 11.5654 23.4711 10.8966C22.9208 10.2277 22.1644 9.77665 21.33 9.61994C21.2818 9.61994 20.4233 9.49994 19.5937 9.61994C19.4992 9.63757 19.4017 9.61602 19.3223 9.55991C19.243 9.5038 19.188 9.41763 19.1693 9.31994C19.1611 9.26978 19.163 9.21842 19.1748 9.16906C19.1867 9.11969 19.2082 9.07339 19.2381 9.03303C19.2679 8.99268 19.3055 8.95915 19.3485 8.93453C19.3914 8.90991 19.4388 8.89473 19.4876 8.88994C19.9897 8.82243 20.4972 8.80902 21.002 8.84994C20.8608 7.44266 20.2197 6.14014 19.2035 5.19568C18.1873 4.25123 16.8686 3.73234 15.5038 3.73994C13.7676 3.73994 12.0313 4.60994 10.9702 5.98994C11.6937 6.58994 12.1471 7.50994 12.1471 8.51994C12.1471 8.71994 11.9831 8.88994 11.7805 8.88994C11.6849 8.88997 11.5931 8.85131 11.5247 8.7822C11.4562 8.71308 11.4165 8.61898 11.414 8.51994C11.4096 8.03341 11.271 7.55834 11.0146 7.1508C10.7583 6.74326 10.3948 6.42026 9.96707 6.21994L9.88991 6.17994C9.78956 6.13322 9.68647 6.09314 9.58124 6.05994L9.54265 6.04994C9.30715 5.98196 9.06366 5.9483 8.81921 5.94994C8.14799 5.93653 7.49901 6.19949 7.01445 6.68121C6.5299 7.16293 6.24929 7.82413 6.2341 8.51994V9.11994L6.02189 9.21994C5.33297 9.56511 4.74795 10.0986 4.32982 10.7629C3.91168 11.4272 3.67629 12.1972 3.64899 12.9899C3.64899 15.1899 5.44313 16.9899 7.65205 16.9899H9.56194C9.76451 16.9899 9.92849 17.1499 9.92849 17.3499C9.92849 17.5499 9.76451 17.7199 9.56194 17.7199H7.65205C6.41799 17.7441 5.22512 17.2595 4.33534 16.3727C3.44556 15.4859 2.93159 14.2693 2.90625 12.9899C2.90625 11.2399 3.9673 9.48994 5.50101 8.65994V8.51994C5.51066 8.04365 5.61704 7.57481 5.81321 7.144C6.00938 6.71319 6.29094 6.33008 6.63952 6.01966C6.9881 5.70923 7.39588 5.47846 7.83627 5.34239C8.27666 5.20632 8.73977 5.168 9.1954 5.22994L9.31115 5.24994L9.56194 5.28994L9.68734 5.32994C9.88594 5.3818 10.0796 5.45209 10.2661 5.53994L10.3529 5.57994C10.9712 4.77594 11.7561 4.12654 12.6494 3.67991C13.5428 3.23328 14.5217 3.00088 15.5135 2.99994H15.5038Z" fill="#2677C5"/>
</svg>
